<svg width="56" height="57" viewBox="0 0 56 57" fill="none" xmlns="http://www.w3.org/2000/svg">
<path d="M28 1C28.1007 1 28.1908 1.06691 28.2197 1.16406L28.6992 1.02148L28.2197 1.16504L28.2236 1.17676C28.2261 1.18501 28.2295 1.1976 28.2344 1.21387C28.2441 1.24634 28.2586 1.29448 28.2773 1.35742C28.315 1.48364 28.3707 1.66934 28.4414 1.90625C28.5827 2.37998 28.7848 3.05966 29.0303 3.88281C29.5214 5.52955 30.1846 7.75142 30.8701 10.0508C33.1029 17.5392 38.9608 23.3971 46.4492 25.6299C48.7486 26.3154 50.9705 26.9786 52.6172 27.4697C53.4403 27.7152 54.12 27.9173 54.5938 28.0586C54.8307 28.1293 55.0164 28.185 55.1426 28.2227C55.2055 28.2414 55.2537 28.2559 55.2861 28.2656C55.3024 28.2705 55.315 28.2739 55.3232 28.2764L55.335 28.2803L55.4785 27.8008L55.3359 28.2803C55.4331 28.3092 55.5 28.3993 55.5 28.5C55.5 28.6007 55.4331 28.6908 55.3359 28.7197H55.335L55.3232 28.7236C55.315 28.7261 55.3024 28.7295 55.2861 28.7344C55.2537 28.7441 55.2055 28.7586 55.1426 28.7773C55.0164 28.815 54.8307 28.8707 54.5938 28.9414C54.12 29.0827 53.4403 29.2848 52.6172 29.5303C50.9705 30.0214 48.7486 30.6846 46.4492 31.3701C38.9608 33.6029 33.1029 39.4608 30.8701 46.9492C30.1846 49.2486 29.5214 51.4705 29.0303 53.1172C28.7848 53.9403 28.5827 54.62 28.4414 55.0938C28.3707 55.3307 28.315 55.5164 28.2773 55.6426C28.2586 55.7055 28.2441 55.7537 28.2344 55.7861C28.2295 55.8024 28.2261 55.815 28.2236 55.8232L28.2197 55.835V55.8359C28.1908 55.9331 28.1007 56 28 56C27.8993 56 27.8092 55.9331 27.7803 55.8359L27.3008 55.9785L27.7803 55.835L27.7764 55.8232C27.7739 55.815 27.7705 55.8024 27.7656 55.7861C27.7559 55.7537 27.7414 55.7055 27.7227 55.6426C27.685 55.5164 27.6293 55.3307 27.5586 55.0938C27.4173 54.62 27.2152 53.9403 26.9697 53.1172C26.4786 51.4705 25.8154 49.2486 25.1299 46.9492C22.8971 39.4608 17.0392 33.6029 9.55078 31.3701C7.25143 30.6846 5.02955 30.0214 3.38281 29.5303C2.55966 29.2848 1.87998 29.0827 1.40625 28.9414C1.16934 28.8707 0.983643 28.815 0.857422 28.7773C0.794483 28.7586 0.746336 28.7441 0.713867 28.7344C0.697604 28.7295 0.68501 28.7261 0.676758 28.7236L0.665039 28.7197L0.521484 29.1992L0.664062 28.7197C0.566899 28.6908 0.5 28.6007 0.5 28.5C0.500003 28.3993 0.566897 28.3092 0.664062 28.2803L0.521484 27.8008L0.665039 28.2803L0.676758 28.2764C0.68501 28.2739 0.697604 28.2705 0.713867 28.2656C0.746337 28.2559 0.794484 28.2414 0.857422 28.2227C0.983643 28.185 1.16934 28.1293 1.40625 28.0586C1.87998 27.9173 2.55966 27.7152 3.38281 27.4697C5.02955 26.9786 7.25143 26.3154 9.55078 25.6299C17.0392 23.3971 22.8971 17.5392 25.1299 10.0508C25.8154 7.75142 26.4786 5.52955 26.9697 3.88281C27.2152 3.05966 27.4173 2.37998 27.5586 1.90625C27.6293 1.66934 27.685 1.48364 27.7227 1.35742C27.7414 1.29448 27.7559 1.24634 27.7656 1.21387C27.7705 1.1976 27.7739 1.18501 27.7764 1.17676L27.7803 1.16504L27.3008 1.02148L27.7803 1.16406C27.8092 1.0669 27.8993 1 28 1Z" stroke="#14121A"/>
</svg>
