<svg width="123" height="30" viewBox="0 0 123 30" fill="none" xmlns="http://www.w3.org/2000/svg">
<path d="M36.3022 19.9426H45.0706V17.2876H39.4187V7.28711H36.3022V19.9426Z" fill="#14121A"/>
<path d="M50.2657 18.1735C49.0156 18.1735 48.3641 17.0761 48.3641 15.43C48.3641 13.7839 49.0156 12.6688 50.2657 12.6688C51.5158 12.6688 52.1849 13.7839 52.1849 15.43C52.1849 17.0761 51.5158 18.1735 50.2657 18.1735ZM50.2833 20.2267C53.1885 20.2267 55.0901 18.1558 55.0901 15.43C55.0901 12.7042 53.1885 10.6333 50.2833 10.6333C47.3958 10.6333 45.459 12.7042 45.459 15.43C45.459 18.1558 47.3958 20.2267 50.2833 20.2267Z" fill="#14121A"/>
<path d="M60.1189 23.0756C61.457 23.0756 62.6367 22.7747 63.429 22.0667C64.1509 21.4118 64.6263 20.4206 64.6263 19.0577V10.8802H61.8796V11.8537H61.8444C61.3162 11.0926 60.5062 10.6147 59.309 10.6147C57.0729 10.6147 55.5234 12.4909 55.5234 15.1459C55.5234 17.9249 57.4074 19.4471 59.4322 19.4471C60.5238 19.4471 61.2105 19.0046 61.7387 18.4028H61.8092V19.3055C61.8092 20.4029 61.2986 21.0401 60.0837 21.0401C59.1329 21.0401 58.6575 20.633 58.499 20.1551H55.7171C55.9988 22.049 57.6363 23.0756 60.1189 23.0756ZM60.1013 17.3054C59.0272 17.3054 58.323 16.4204 58.323 15.0574C58.323 13.6768 59.0272 12.7918 60.1013 12.7918C61.2986 12.7918 61.9324 13.8184 61.9324 15.0397C61.9324 16.3141 61.3514 17.3054 60.1013 17.3054Z" fill="#14121A"/>
<path d="M70.2735 18.1735C69.0234 18.1735 68.372 17.0761 68.372 15.43C68.372 13.7839 69.0234 12.6688 70.2735 12.6688C71.5236 12.6688 72.1927 13.7839 72.1927 15.43C72.1927 17.0761 71.5236 18.1735 70.2735 18.1735ZM70.2911 20.2267C73.1963 20.2267 75.0975 18.1558 75.0975 15.43C75.0975 12.7042 73.1963 10.6333 70.2911 10.6333C67.4036 10.6333 65.4668 12.7042 65.4668 15.43C65.4668 18.1558 67.4036 20.2267 70.2911 20.2267Z" fill="#14121A"/>
<path d="M75.936 19.9429H78.806V10.8805H75.936V19.9429ZM75.936 9.62375H78.806V7.28735H75.936V9.62375Z" fill="#14121A"/>
<path d="M80.0513 22.934H82.9212V19.0046H82.9564C83.5199 19.7657 84.3474 20.2259 85.5095 20.2259C87.8688 20.2259 89.4358 18.3497 89.4358 15.4114C89.4358 12.6856 87.9744 10.6147 85.5799 10.6147C84.3474 10.6147 83.467 11.1634 82.8508 11.9776H82.798V10.8802H80.0513V22.934ZM84.77 17.9957C83.5375 17.9957 82.8332 16.9868 82.8332 15.5177C82.8332 14.0485 83.467 12.9334 84.7171 12.9334C85.9496 12.9334 86.5307 13.96 86.5307 15.5177C86.5307 17.0576 85.8616 17.9957 84.77 17.9957Z" fill="#14121A"/>
<path d="M94.1078 20.2259C96.4671 20.2259 98.2102 19.1993 98.2102 17.2169C98.2102 14.8981 96.3439 14.491 94.7593 14.2255C93.6148 14.0131 92.5936 13.9246 92.5936 13.2874C92.5936 12.721 93.1394 12.4555 93.8437 12.4555C94.636 12.4555 95.1818 12.7033 95.2875 13.5175H97.9285C97.7877 11.7298 96.4143 10.6147 93.8613 10.6147C91.7308 10.6147 89.9701 11.6059 89.9701 13.5175C89.9701 15.6416 91.6428 16.0664 93.2098 16.3319C94.4071 16.5443 95.4988 16.6328 95.4988 17.447C95.4988 18.0311 94.9529 18.3497 94.0902 18.3497C93.1394 18.3497 92.5408 17.9072 92.4351 17.0045H89.7236C89.8117 19.0046 91.4667 20.2259 94.1078 20.2259Z" fill="#14121A"/>
<path d="M102.109 20.2085C103.359 20.2085 104.152 19.7129 104.803 18.8279H104.856V19.943H107.603V10.8806H104.733V15.9428C104.733 17.0225 104.134 17.7659 103.148 17.7659C102.232 17.7659 101.792 17.2172 101.792 16.226V10.8806H98.9399V16.8278C98.9399 18.8456 100.032 20.2085 102.109 20.2085Z" fill="#14121A"/>
<path d="M108.851 19.9427H111.721V14.8627C111.721 13.783 112.249 13.0219 113.147 13.0219C114.01 13.0219 114.415 13.5883 114.415 14.5618V19.9427H117.285V14.8627C117.285 13.783 117.795 13.0219 118.711 13.0219C119.574 13.0219 119.979 13.5883 119.979 14.5618V19.9427H122.849V14.0485C122.849 12.013 121.827 10.6147 119.785 10.6147C118.623 10.6147 117.655 11.1103 116.95 12.2077H116.915C116.457 11.2342 115.559 10.6147 114.38 10.6147C113.077 10.6147 112.214 11.2342 111.651 12.1723H111.598V10.8802H108.851V19.9427Z" fill="#14121A"/>
<path d="M18.7924 1.20862L15.907 0.431396L13.4755 9.55396L11.2802 1.31805L8.3948 2.09527L10.7666 10.9936L4.85898 5.05477L2.74672 7.17818L9.22666 13.6924L1.15693 11.5187L0.383789 14.4193L9.20098 16.7943C9.10003 16.3566 9.04663 15.9005 9.04663 15.4319C9.04663 12.1149 11.7214 9.426 15.021 9.426C18.3206 9.426 20.9954 12.1149 20.9954 15.4319C20.9954 15.8975 20.9426 16.3508 20.8429 16.7859L28.8561 18.9443L29.6292 16.0437L20.777 13.6593L28.8472 11.4854L28.0741 8.58481L19.2222 10.9691L25.1298 5.03039L23.0175 2.90699L16.6275 9.33079L18.7924 1.20862Z" fill="url(#paint0_linear_342_18)"/>
<path d="M20.8349 16.8196C20.5875 17.871 20.0652 18.8155 19.3486 19.5722L25.1538 25.4081L27.2661 23.2847L20.8349 16.8196Z" fill="url(#paint1_linear_342_18)"/>
<path d="M19.2897 19.6335C18.5645 20.3782 17.6479 20.9339 16.6201 21.2203L18.7325 29.1455L21.6179 28.3682L19.2897 19.6335Z" fill="url(#paint2_linear_342_18)"/>
<path d="M16.5126 21.249C16.0357 21.3722 15.5359 21.4377 15.0208 21.4377C14.469 21.4377 13.9346 21.3625 13.4273 21.2217L11.313 29.1541L14.1983 29.9313L16.5126 21.249Z" fill="url(#paint3_linear_342_18)"/>
<path d="M13.3251 21.1927C12.313 20.8921 11.4127 20.3293 10.7023 19.5825L4.88281 25.4327L6.99507 27.5562L13.3251 21.1927Z" fill="url(#paint4_linear_342_18)"/>
<path d="M10.6544 19.5303C9.95609 18.7788 9.44747 17.8469 9.20537 16.8118L1.16602 18.9773L1.93915 21.8779L10.6544 19.5303Z" fill="url(#paint5_linear_342_18)"/>
<defs>
<linearGradient id="paint0_linear_342_18" x1="0.383789" y1="9.68786" x2="29.6292" y2="9.68786" gradientUnits="userSpaceOnUse">
<stop stop-color="#654EA3"/>
<stop offset="1" stop-color="#EAAFC8"/>
</linearGradient>
<linearGradient id="paint1_linear_342_18" x1="19.3486" y1="21.1139" x2="27.2661" y2="21.1139" gradientUnits="userSpaceOnUse">
<stop stop-color="#654EA3"/>
<stop offset="1" stop-color="#EAAFC8"/>
</linearGradient>
<linearGradient id="paint2_linear_342_18" x1="16.6201" y1="24.3895" x2="21.6179" y2="24.3895" gradientUnits="userSpaceOnUse">
<stop stop-color="#654EA3"/>
<stop offset="1" stop-color="#EAAFC8"/>
</linearGradient>
<linearGradient id="paint3_linear_342_18" x1="11.313" y1="25.5765" x2="16.5126" y2="25.5765" gradientUnits="userSpaceOnUse">
<stop stop-color="#654EA3"/>
<stop offset="1" stop-color="#EAAFC8"/>
</linearGradient>
<linearGradient id="paint4_linear_342_18" x1="4.88281" y1="23.5693" x2="13.3251" y2="23.5693" gradientUnits="userSpaceOnUse">
<stop stop-color="#654EA3"/>
<stop offset="1" stop-color="#EAAFC8"/>
</linearGradient>
<linearGradient id="paint5_linear_342_18" x1="1.16602" y1="19.3448" x2="10.6544" y2="19.3448" gradientUnits="userSpaceOnUse">
<stop stop-color="#654EA3"/>
<stop offset="1" stop-color="#EAAFC8"/>
</linearGradient>
</defs>
</svg>
