<svg width="124" height="30" viewBox="0 0 124 30" fill="none" xmlns="http://www.w3.org/2000/svg">
<path d="M36.8374 19.7693H45.6057V17.1143H39.9539V7.11377H36.8374V19.7693Z" fill="#14121A"/>
<path d="M50.8009 18.0002C49.5508 18.0002 48.8993 16.9028 48.8993 15.2567C48.8993 13.6106 49.5508 12.4955 50.8009 12.4955C52.051 12.4955 52.72 13.6106 52.72 15.2567C52.72 16.9028 52.051 18.0002 50.8009 18.0002ZM50.8185 20.0534C53.7236 20.0534 55.6252 17.9825 55.6252 15.2567C55.6252 12.5309 53.7236 10.46 50.8185 10.46C47.9309 10.46 45.9941 12.5309 45.9941 15.2567C45.9941 17.9825 47.9309 20.0534 50.8185 20.0534Z" fill="#14121A"/>
<path d="M60.654 22.902C61.9922 22.902 63.1719 22.6011 63.9642 21.8931C64.6861 21.2382 65.1615 20.247 65.1615 18.8841V10.7067H62.4147V11.6802H62.3795C61.8513 10.9191 61.0414 10.4412 59.8441 10.4412C57.608 10.4412 56.0586 12.3174 56.0586 14.9724C56.0586 17.7513 57.9426 19.2735 59.9674 19.2735C61.059 19.2735 61.7457 18.831 62.2739 18.2292H62.3443V19.1319C62.3443 20.2293 61.8337 20.8665 60.6188 20.8665C59.668 20.8665 59.1927 20.4594 59.0342 19.9815H56.2523C56.534 21.8754 58.1714 22.902 60.654 22.902ZM60.6364 17.1318C59.5624 17.1318 58.8581 16.2468 58.8581 14.8839C58.8581 13.5033 59.5624 12.6183 60.6364 12.6183C61.8337 12.6183 62.4676 13.6449 62.4676 14.8662C62.4676 16.1406 61.8865 17.1318 60.6364 17.1318Z" fill="#14121A"/>
<path d="M70.8087 18.0002C69.5586 18.0002 68.9071 16.9028 68.9071 15.2567C68.9071 13.6106 69.5586 12.4955 70.8087 12.4955C72.0588 12.4955 72.7279 13.6106 72.7279 15.2567C72.7279 16.9028 72.0588 18.0002 70.8087 18.0002ZM70.8263 20.0534C73.7315 20.0534 75.6326 17.9825 75.6326 15.2567C75.6326 12.5309 73.7315 10.46 70.8263 10.46C67.9387 10.46 66.002 12.5309 66.002 15.2567C66.002 17.9825 67.9387 20.0534 70.8263 20.0534Z" fill="#14121A"/>
<path d="M76.4712 19.7693H79.3411V10.7069H76.4712V19.7693ZM76.4712 9.45017H79.3411V7.11377H76.4712V9.45017Z" fill="#14121A"/>
<path d="M80.5864 22.7604H83.4564V18.831H83.4916C84.055 19.5921 84.8825 20.0523 86.0446 20.0523C88.404 20.0523 89.971 18.1761 89.971 15.2379C89.971 12.5121 88.5096 10.4412 86.115 10.4412C84.8825 10.4412 84.0022 10.9899 83.3859 11.8041H83.3331V10.7067H80.5864V22.7604ZM85.3051 17.8221C84.0726 17.8221 83.3683 16.8132 83.3683 15.3441C83.3683 13.875 84.0022 12.7599 85.2523 12.7599C86.4848 12.7599 87.0658 13.7865 87.0658 15.3441C87.0658 16.884 86.3968 17.8221 85.3051 17.8221Z" fill="#14121A"/>
<path d="M94.643 20.0523C97.0023 20.0523 98.7454 19.0257 98.7454 17.0433C98.7454 14.7246 96.8791 14.3175 95.2944 14.052C94.15 13.8396 93.1287 13.7511 93.1287 13.1139C93.1287 12.5475 93.6746 12.282 94.3788 12.282C95.1712 12.282 95.717 12.5298 95.8226 13.344H98.4637C98.3228 11.5563 96.9495 10.4412 94.3964 10.4412C92.266 10.4412 90.5053 11.4324 90.5053 13.344C90.5053 15.468 92.178 15.8928 93.745 16.1583C94.9423 16.3707 96.0339 16.4592 96.0339 17.2734C96.0339 17.8575 95.4881 18.1761 94.6253 18.1761C93.6746 18.1761 93.0759 17.7336 92.9703 16.8309H90.2588C90.3468 18.831 92.0019 20.0523 94.643 20.0523Z" fill="#14121A"/>
<path d="M102.644 20.0357C103.894 20.0357 104.687 19.5401 105.338 18.6551H105.391V19.7702H108.138V10.7078H105.268V15.77C105.268 16.8497 104.669 17.5931 103.683 17.5931C102.768 17.5931 102.327 17.0444 102.327 16.0532V10.7078H99.4751V16.655C99.4751 18.6728 100.567 20.0357 102.644 20.0357Z" fill="#14121A"/>
<path d="M109.386 19.7691H112.256V14.6892C112.256 13.6095 112.784 12.8484 113.682 12.8484C114.545 12.8484 114.95 13.4148 114.95 14.3883V19.7691H117.82V14.6892C117.82 13.6095 118.331 12.8484 119.246 12.8484C120.109 12.8484 120.514 13.4148 120.514 14.3883V19.7691H123.384V13.875C123.384 11.8395 122.363 10.4412 120.32 10.4412C119.158 10.4412 118.19 10.9368 117.485 12.0342H117.45C116.992 11.0607 116.095 10.4412 114.915 10.4412C113.612 10.4412 112.749 11.0607 112.186 11.9988H112.133V10.7067H109.386V19.7691Z" fill="#14121A"/>
<path fill-rule="evenodd" clip-rule="evenodd" d="M15.3374 29.5845C23.3456 29.5845 29.8374 23.0583 29.8374 15.0079C29.8374 6.95755 23.3456 0.431396 15.3374 0.431396C7.32927 0.431396 0.837402 6.95755 0.837402 15.0079C0.837402 23.0583 7.32927 29.5845 15.3374 29.5845ZM19.8609 7.22177C20.0811 6.43552 19.3221 5.97058 18.6289 6.46704L8.95242 13.3969C8.20067 13.9353 8.31891 15.0079 9.13004 15.0079H11.6781V14.9881H16.6442L12.5978 16.4234L10.8139 22.7941C10.5937 23.5804 11.3527 24.0453 12.0459 23.5488L21.7224 16.619C22.4742 16.0806 22.3559 15.0079 21.5448 15.0079H17.6807L19.8609 7.22177Z" fill="url(#paint0_linear_342_4)"/>
<defs>
<linearGradient id="paint0_linear_342_4" x1="0.837402" y1="15.0079" x2="29.8374" y2="15.0079" gradientUnits="userSpaceOnUse">
<stop stop-color="#654EA3"/>
<stop offset="1" stop-color="#EAAFC8"/>
</linearGradient>
</defs>
</svg>
