<svg width="55" height="55" viewBox="0 0 55 55" fill="none" xmlns="http://www.w3.org/2000/svg">
<g clip-path="url(#clip0_395_112)">
<path d="M27.0843 54.4855C42.042 54.4855 54.1676 42.3599 54.1676 27.4022C54.1676 12.4445 42.042 0.318848 27.0843 0.318848C12.1266 0.318848 0.000976562 12.4445 0.000976562 27.4022C0.000976562 42.3599 12.1266 54.4855 27.0843 54.4855Z" fill="#3A559F"/>
<path d="M35.6648 24.1953L35.12 28.9133C35.0974 29.1286 34.9965 29.3281 34.8366 29.4739C34.6766 29.6197 34.4686 29.7017 34.2521 29.7043H29.3279L29.3033 43.6922C29.3049 43.8579 29.2413 44.0177 29.1261 44.1369C29.0109 44.2561 28.8535 44.3252 28.6877 44.3293H23.6989C23.6159 44.3293 23.5338 44.3126 23.4575 44.2802C23.3812 44.2477 23.3122 44.2002 23.2547 44.1404C23.1972 44.0806 23.1524 44.0098 23.1229 43.9322C23.0935 43.8547 23.08 43.772 23.0833 43.6891V29.7043H19.3902C19.2742 29.7031 19.1595 29.679 19.0528 29.6335C18.9461 29.588 18.8494 29.5219 18.7683 29.439C18.6871 29.3562 18.6231 29.2581 18.5798 29.1505C18.5365 29.0428 18.5149 28.9277 18.5161 28.8117L18.4976 24.0937C18.496 23.9773 18.5173 23.8617 18.5604 23.7536C18.6034 23.6454 18.6674 23.5468 18.7485 23.4633C18.8297 23.3799 18.9265 23.3132 19.0334 23.2672C19.1404 23.2212 19.2553 23.1966 19.3717 23.195H23.0833V18.6401C23.0833 13.3527 26.2226 10.4751 30.8267 10.4751H34.5999C34.7166 10.4763 34.8319 10.5005 34.9391 10.5464C35.0464 10.5922 35.1436 10.6588 35.2251 10.7423C35.3066 10.8258 35.3708 10.9246 35.414 11.0329C35.4573 11.1413 35.4787 11.2571 35.477 11.3738V15.3439C35.4787 15.4606 35.4573 15.5764 35.414 15.6848C35.3708 15.7932 35.3066 15.8919 35.2251 15.9754C35.1436 16.0589 35.0464 16.1255 34.9391 16.1713C34.8319 16.2172 34.7166 16.2414 34.5999 16.2426H32.2855C29.7834 16.2426 29.2971 17.4737 29.2971 19.2526V23.195H34.7969C34.922 23.1966 35.0453 23.2246 35.1588 23.2773C35.2722 23.3299 35.3733 23.406 35.4553 23.5004C35.5372 23.5949 35.5983 23.7057 35.6344 23.8254C35.6705 23.9452 35.6809 24.0712 35.6648 24.1953Z" fill="white"/>
</g>
<defs>
<clipPath id="clip0_395_112">
<rect width="54.1667" height="54.1667" fill="white" transform="translate(0.000976562 0.318848)"/>
</clipPath>
</defs>
</svg>
