<svg width="196" height="41" viewBox="0 0 196 41" fill="none" xmlns="http://www.w3.org/2000/svg">
<path fill-rule="evenodd" clip-rule="evenodd" d="M28.8448 13.0534H21.1824L20.4966 19.8839H27.5076C31.7949 19.8839 32.1142 20.7001 32.1142 23.4854V24.6642H26.4473C20.8792 24.6642 17.767 26.6108 17.767 32.0646C17.767 36.6891 20.4342 40.0319 25.4468 40.0319C27.2826 40.0319 30.067 39.7516 33.1886 38.0254L33.4833 39.7512H40.3164V23.5397C40.3159 16.0226 38.253 13.0534 28.8448 13.0534ZM32.1142 33.1241C30.8929 33.6842 29.9035 34.2286 28.2299 34.2286C26.6706 34.2286 25.9644 33.4528 25.9644 31.9584C25.9644 30.4526 26.7246 30.1324 28.4563 30.1324H32.1147L32.1142 33.1241ZM195.333 13.0534H186.446L178.933 24.9479V0.754661L170.736 2.11949V39.7003H178.933V27.1764L186.446 39.7003H195.333L187.129 26.0329L195.333 13.0534ZM130.201 12.6865C120.564 12.6865 118.219 18.0881 118.219 23.6578V29.0343C118.219 34.6019 120.564 40.0026 130.201 40.0026C139.831 40.0026 142.134 34.6019 142.134 29.0343V23.6578C142.134 18.0881 139.831 12.6865 130.201 12.6865ZM133.928 29.8267C133.928 31.7236 132.954 33.2468 130.173 33.2468C127.384 33.2468 126.418 31.7236 126.418 29.8267V22.9189C126.418 21.0284 127.384 19.5085 130.173 19.5085C132.954 19.5085 133.928 21.0284 133.928 22.9189V29.8267ZM18.4919 13.0534H12.2953L12.3055 9.63454C12.3055 7.85398 12.4754 6.89936 15.0339 6.89936H18.4524V0.0688477H12.9812C6.41053 0.0688477 4.09788 3.38283 4.09788 8.95382V13.0534H0V19.8839H4.09788V39.7003H12.2953V19.8839H17.7665L18.4919 13.0534ZM43.0498 23.9831V28.7672C43.0498 35.4465 46.5468 40.0688 55.3499 40.0688C57.4005 40.0688 59.8261 39.8497 63.5511 39.0144V32.3546C59.2987 33.0859 58.0782 33.2468 56.0323 33.2468C52.3569 33.2468 51.2469 32.4353 51.2469 29.318V23.4213C51.2469 20.3073 52.3569 19.4958 56.0323 19.4958C58.0782 19.4958 59.2987 19.6567 63.5511 20.3846V13.7256C59.8261 12.8899 57.4001 12.6687 55.3499 12.6687C46.5473 12.6687 43.0498 17.2995 43.0498 23.9831ZM106.297 12.6687C104.211 12.6687 101.918 13.0016 100.147 13.6598V0.754661L91.951 2.11949V39.0144C96.4111 39.7002 98.7844 40.0561 102.823 40.0561C114.014 40.0561 115.861 35.348 115.861 28.8929V22.2361C115.86 16.3394 114.496 12.6687 106.297 12.6687ZM107.663 28.9489C107.663 31.5104 107.114 33.3475 103.1 33.3475C101.987 33.3475 101.319 33.3475 100.147 33.2332V20.6122C101.369 20.055 102.573 19.5077 104.246 19.5077C107.035 19.5077 107.663 21.0275 107.663 22.918V28.9489ZM156.455 12.6865C146.818 12.6865 144.472 18.0881 144.472 23.6578V29.0343C144.472 34.6019 146.818 40.0026 156.455 40.0026C166.082 40.0026 168.386 34.6019 168.386 29.0343V23.6578C168.386 18.0881 166.082 12.6865 156.455 12.6865ZM160.19 29.8267C160.19 31.7236 159.207 33.2468 156.426 33.2468C153.642 33.2468 152.676 31.7236 152.676 29.8267V22.9189C152.676 21.0284 153.642 19.5085 156.426 19.5085C159.207 19.5085 160.19 21.0284 160.19 22.9189V29.8267ZM77.5939 12.6687C68.5752 12.6687 65.9763 17.4553 65.9763 23.2973V28.7672C65.9763 35.4465 69.4767 40.0688 78.2797 40.0688C82.2978 40.0688 84.4295 39.8497 88.5223 39.0144V32.3546C84.2788 33.0859 82.2634 33.2468 78.9592 33.2468C75.2855 33.2468 74.1746 32.4353 74.1746 29.318V28.7672H89.2081V23.2973C89.2086 17.3989 86.6152 12.6687 77.5939 12.6687ZM81.0107 23.2973H74.1746V22.2361C74.1746 20.3459 74.8091 18.8193 77.5939 18.8193C80.3754 18.8193 81.0107 20.3459 81.0107 22.2361V23.2973Z" fill="#004A9A"/>
</svg>
