<svg width="30" height="30" viewBox="0 0 30 30" fill="none" xmlns="http://www.w3.org/2000/svg">
<path d="M14.721 20.3571C20.0466 20.3571 24.3638 16.0399 24.3638 10.7143C24.3638 5.38867 20.0466 1.07141 14.721 1.07141C9.39538 1.07141 5.07812 5.38867 5.07812 10.7143C5.07812 16.0399 9.39538 20.3571 14.721 20.3571Z" stroke="#654EA3" stroke-width="1.5" stroke-linecap="round" stroke-linejoin="round"/>
<path d="M14.7213 15C17.0882 15 19.007 13.0812 19.007 10.7143C19.007 8.34737 17.0882 6.42859 14.7213 6.42859C12.3543 6.42859 10.4355 8.34737 10.4355 10.7143C10.4355 13.0812 12.3543 15 14.7213 15Z" stroke="#654EA3" stroke-width="1.5" stroke-linecap="round" stroke-linejoin="round"/>
<path d="M12.8563 20.1857L10.9706 28.1143C10.9333 28.2649 10.8643 28.4059 10.7682 28.5279C10.6721 28.6498 10.5512 28.7499 10.4134 28.8214C10.268 28.8845 10.1112 28.9171 9.95272 28.9171C9.79422 28.9171 9.6374 28.8845 9.492 28.8214L2.37772 25.7143C2.22849 25.6437 2.09719 25.5403 1.99365 25.4117C1.89012 25.2832 1.81706 25.1328 1.77994 24.972C1.74282 24.8111 1.74262 24.644 1.77935 24.4831C1.81608 24.3221 1.88878 24.1716 1.99201 24.0428L7.49915 17.1428" stroke="#654EA3" stroke-width="1.5" stroke-linecap="round" stroke-linejoin="round"/>
<path d="M17.1426 20.0786L19.0711 28.1143C19.1095 28.2675 19.1813 28.4104 19.2813 28.5326C19.3813 28.6549 19.5071 28.7535 19.6497 28.8214C19.7911 28.8853 19.9445 28.9184 20.0997 28.9184C20.2549 28.9184 20.4083 28.8853 20.5497 28.8214L27.6211 25.7143C27.7726 25.6446 27.9057 25.5405 28.0099 25.4103C28.1141 25.2801 28.1864 25.1274 28.2211 24.9643C28.2618 24.8048 28.2635 24.6378 28.2262 24.4775C28.1889 24.3171 28.1137 24.1681 28.0069 24.0429L22.264 16.7357" stroke="#654EA3" stroke-width="1.5" stroke-linecap="round" stroke-linejoin="round"/>
</svg>
