<svg width="30" height="30" viewBox="0 0 30 30" fill="none" xmlns="http://www.w3.org/2000/svg">
<path d="M20.3571 3.21387H23.5714C24.1397 3.21387 24.6847 3.43963 25.0866 3.8415C25.4885 4.24336 25.7142 4.7884 25.7142 5.35672V26.7853C25.7142 27.3536 25.4885 27.8987 25.0866 28.3005C24.6847 28.7024 24.1397 28.9282 23.5714 28.9282H6.4285C5.86018 28.9282 5.31514 28.7024 4.91327 28.3005C4.51141 27.8987 4.28564 27.3536 4.28564 26.7853V5.35672C4.28564 4.7884 4.51141 4.24336 4.91327 3.8415C5.31514 3.43963 5.86018 3.21387 6.4285 3.21387H9.64279" stroke="#725DA7" stroke-width="1.5" stroke-linecap="round" stroke-linejoin="round"/>
<path d="M18.214 1.07129H11.7854C10.602 1.07129 9.64258 2.03068 9.64258 3.21415V4.28557C9.64258 5.46904 10.602 6.42843 11.7854 6.42843H18.214C19.3975 6.42843 20.3569 5.46904 20.3569 4.28557V3.21415C20.3569 2.03068 19.3975 1.07129 18.214 1.07129Z" stroke="#725DA7" stroke-width="1.5" stroke-linecap="round" stroke-linejoin="round"/>
<path d="M9.64258 11.7852H20.3569" stroke="#725DA7" stroke-width="1.5" stroke-linecap="round" stroke-linejoin="round"/>
<path d="M9.64258 17.1426H20.3569" stroke="#725DA7" stroke-width="1.5" stroke-linecap="round" stroke-linejoin="round"/>
<path d="M9.64258 22.5H20.3569" stroke="#725DA7" stroke-width="1.5" stroke-linecap="round" stroke-linejoin="round"/>
</svg>
