<svg width="30" height="30" viewBox="0 0 30 30" fill="none" xmlns="http://www.w3.org/2000/svg">
<g clip-path="url(#clip0_684_932)">
<path d="M3.60756 12.9292H5.67899C5.95368 12.9292 6.21712 13.0383 6.41135 13.2326C6.60558 13.4268 6.7147 13.6902 6.7147 13.9649V19.1435C6.7147 19.4182 6.60558 19.6816 6.41135 19.8758C6.21712 20.0701 5.95368 20.1792 5.67899 20.1792H3.60756C3.05818 20.1792 2.53131 19.961 2.14284 19.5725C1.75437 19.184 1.53613 18.6571 1.53613 18.1078V15.0006C1.53613 14.4513 1.75437 13.9244 2.14284 13.5359C2.53131 13.1474 3.05818 12.9292 3.60756 12.9292V12.9292Z" stroke="white" stroke-width="1.5" stroke-linecap="round" stroke-linejoin="round"/>
<path d="M26.3934 20.1792H24.322C24.0473 20.1792 23.7839 20.0701 23.5896 19.8758C23.3954 19.6816 23.2863 19.4182 23.2863 19.1435V13.9649C23.2863 13.6902 23.3954 13.4268 23.5896 13.2326C23.7839 13.0383 24.0473 12.9292 24.322 12.9292H26.3934C26.9428 12.9292 27.4697 13.1474 27.8581 13.5359C28.2466 13.9244 28.4648 14.4513 28.4648 15.0006V18.1078C28.4648 18.6571 28.2466 19.184 27.8581 19.5725C27.4697 19.961 26.9428 20.1792 26.3934 20.1792V20.1792Z" stroke="white" stroke-width="1.5" stroke-linecap="round" stroke-linejoin="round"/>
<path d="M20.1787 25.8756C21.2775 25.8756 22.3312 25.4391 23.1082 24.6622C23.8851 23.8853 24.3216 22.8315 24.3216 21.7328V20.1792" stroke="white" stroke-width="1.5" stroke-linecap="round" stroke-linejoin="round"/>
<path d="M17.59 23.2854C18.2767 23.2854 18.9353 23.5582 19.4209 24.0438C19.9065 24.5294 20.1793 25.188 20.1793 25.8747C20.1793 26.5614 19.9065 27.22 19.4209 27.7056C18.9353 28.1912 18.2767 28.464 17.59 28.464H14.4828C13.7961 28.464 13.1375 28.1912 12.6519 27.7056C12.1664 27.22 11.8936 26.5614 11.8936 25.8747C11.8936 25.188 12.1664 24.5294 12.6519 24.0438C13.1375 23.5582 13.7961 23.2854 14.4828 23.2854H17.59Z" stroke="white" stroke-width="1.5" stroke-linecap="round" stroke-linejoin="round"/>
<path d="M5.67871 12.9283V10.8568C5.67871 8.38463 6.66079 6.01369 8.40889 4.26558C10.157 2.51748 12.5279 1.5354 15.0001 1.5354C17.4723 1.5354 19.8433 2.51748 21.5914 4.26558C23.3395 6.01369 24.3216 8.38463 24.3216 10.8568V12.9283" stroke="white" stroke-width="1.5" stroke-linecap="round" stroke-linejoin="round"/>
<path d="M11.8936 8.7854V11.8925" stroke="white" stroke-width="1.5" stroke-linecap="round" stroke-linejoin="round"/>
<path d="M18.1074 8.7854V11.8925" stroke="white" stroke-width="1.5" stroke-linecap="round" stroke-linejoin="round"/>
<path d="M11.8936 16.0354C11.8936 18.7904 18.1078 18.7904 18.1078 16.0354" stroke="white" stroke-width="1.5" stroke-linecap="round" stroke-linejoin="round"/>
</g>
<defs>
<clipPath id="clip0_684_932">
<rect width="29" height="29" fill="white" transform="translate(0.5 0.5)"/>
</clipPath>
</defs>
</svg>
