<svg width="30" height="30" viewBox="0 0 30 30" fill="none" xmlns="http://www.w3.org/2000/svg">
<g clip-path="url(#clip0_542_378)">
<path d="M28.9284 28.8858H27.857C26.7204 28.8858 25.6303 28.4343 24.8265 27.6306C24.0228 26.8268 23.5713 25.7367 23.5713 24.6001C23.5713 25.7367 23.1198 26.8268 22.316 27.6306C21.5123 28.4343 20.4222 28.8858 19.2856 28.8858C18.1489 28.8858 17.0588 28.4343 16.2551 27.6306C15.4514 26.8268 14.9999 25.7367 14.9999 24.6001C14.9999 25.7367 14.5483 26.8268 13.7446 27.6306C12.9409 28.4343 11.8508 28.8858 10.7141 28.8858C9.5775 28.8858 8.48742 28.4343 7.68369 27.6306C6.87996 26.8268 6.42843 25.7367 6.42843 24.6001C6.42843 25.7367 5.9769 26.8268 5.17318 27.6306C4.36945 28.4343 3.27936 28.8858 2.14272 28.8858H1.07129" stroke="white" stroke-width="1.5" stroke-linecap="round" stroke-linejoin="round"/>
<path d="M21.4283 20.3141C20.3246 18.9723 18.9375 17.8916 17.3666 17.1497C15.7957 16.4077 14.0799 16.0229 12.3426 16.0229C10.6052 16.0229 8.88945 16.4077 7.31851 17.1497C5.74757 17.8916 4.36046 18.9723 3.25684 20.3141" stroke="white" stroke-width="1.5" stroke-linecap="round" stroke-linejoin="round"/>
<path d="M13.9287 16.1353C14.0573 11.2925 15.5359 6.87819 18.7501 5.29248" stroke="white" stroke-width="1.5" stroke-linecap="round" stroke-linejoin="round"/>
<path d="M12.3428 1.22137C13.7318 0.947846 15.1729 1.21764 16.369 1.97513C17.565 2.73263 18.4249 3.9201 18.7713 5.29279" stroke="white" stroke-width="1.5" stroke-linecap="round" stroke-linejoin="round"/>
<path d="M26.5929 6.08565C25.6066 5.0207 24.2655 4.35248 22.8213 4.20649C21.3772 4.0605 19.9294 4.44678 18.75 5.29279" stroke="white" stroke-width="1.5" stroke-linecap="round" stroke-linejoin="round"/>
<path d="M10.8857 7.58579C11.7254 6.34872 12.97 5.44302 14.4054 5.02454C15.8407 4.60605 17.3771 4.70096 18.75 5.29293C20.1272 5.62973 21.3195 6.48859 22.0752 7.68811C22.8309 8.88764 23.0908 10.3339 22.8 11.7215" stroke="white" stroke-width="1.5" stroke-linecap="round" stroke-linejoin="round"/>
</g>
<defs>
<clipPath id="clip0_542_378">
<rect width="30" height="30" fill="white"/>
</clipPath>
</defs>
</svg>
