<svg width="50" height="50" viewBox="0 0 50 50" fill="none" xmlns="http://www.w3.org/2000/svg">
<path d="M26.6788 24.6427C26.1491 24.8727 25.5778 24.9914 25.0003 24.9914C24.4228 24.9914 23.8514 24.8727 23.3217 24.6427L2.96455 15.2141C2.63399 15.0474 2.35619 14.7921 2.1621 14.4769C1.968 14.1616 1.86523 13.7986 1.86523 13.4284C1.86523 13.0581 1.968 12.6952 2.1621 12.3799C2.35619 12.0646 2.63399 11.8094 2.96455 11.6427L23.3217 2.14266C23.8514 1.91264 24.4228 1.79395 25.0003 1.79395C25.5778 1.79395 26.1491 1.91264 26.6788 2.14266L47.036 11.5712C47.3666 11.738 47.6443 11.9932 47.8384 12.3085C48.0325 12.6237 48.1353 12.9867 48.1353 13.3569C48.1353 13.7272 48.0325 14.0902 47.8384 14.4054C47.6443 14.7207 47.3666 14.9759 47.036 15.1427L26.6788 24.6427Z" stroke="#725DA7" stroke-width="1.5" stroke-linecap="round" stroke-linejoin="round"/>
<path d="M48.2147 26.25L26.429 36.2857C25.9637 36.4979 25.4583 36.6078 24.9468 36.6078C24.4354 36.6078 23.93 36.4979 23.4647 36.2857L1.78613 26.25" stroke="#725DA7" stroke-width="1.5" stroke-linecap="round" stroke-linejoin="round"/>
<path d="M48.2147 37.8569L26.429 47.8926C25.9637 48.1049 25.4583 48.2147 24.9468 48.2147C24.4354 48.2147 23.93 48.1049 23.4647 47.8926L1.78613 37.8569" stroke="#725DA7" stroke-width="1.5" stroke-linecap="round" stroke-linejoin="round"/>
</svg>
