<svg width="30" height="30" viewBox="0 0 30 30" fill="none" xmlns="http://www.w3.org/2000/svg">
<path d="M15 0.321411C17.7564 0.321411 20.4006 1.41632 22.3496 3.36536C24.2985 5.31431 25.3935 7.95783 25.3936 10.714C25.3936 12.2236 24.7262 14.158 23.8174 16.1261C22.8953 18.1228 21.6722 20.2619 20.459 22.2179C19.2442 24.1764 18.0303 25.9646 17.1211 27.2628C16.6663 27.9122 16.2874 28.4401 16.0215 28.8058C15.8885 28.9886 15.7836 29.1316 15.7119 29.2286C15.6762 29.2769 15.6486 29.3139 15.6299 29.339C15.6207 29.3514 15.6133 29.3608 15.6084 29.3673C15.606 29.3706 15.6038 29.3734 15.6025 29.3751L15.6016 29.3771L15.6006 29.3781C15.459 29.5672 15.2363 29.6788 15 29.6788C14.7639 29.6787 14.542 29.567 14.4004 29.3781L15 28.9288L14.3994 29.3781V29.3771C14.3991 29.3766 14.3981 29.3759 14.3975 29.3751C14.3962 29.3734 14.3949 29.3704 14.3926 29.3673C14.3877 29.3608 14.3804 29.3515 14.3711 29.339C14.3524 29.3139 14.3247 29.2769 14.2891 29.2286C14.2174 29.1316 14.1125 28.9886 13.9795 28.8058C13.7136 28.4401 13.3338 27.9123 12.8789 27.2628C11.9697 25.9646 10.7558 24.1763 9.54102 22.2179C8.32784 20.262 7.10564 18.1228 6.18359 16.1261C5.33155 14.281 4.69181 12.4656 4.61523 11.0021L4.60742 10.714C4.6075 7.95773 5.70239 5.31433 7.65137 3.36536C9.60034 1.41638 12.2437 0.321485 15 0.321411ZM15 1.82141C12.6416 1.82149 10.3796 2.75824 8.71191 4.4259C7.04425 6.09357 6.1075 8.35556 6.10742 10.714L6.11328 10.9376C6.17576 12.0834 6.70194 13.6717 7.54492 15.4972C8.43087 17.4157 9.61903 19.4964 10.8164 21.4269C12.0121 23.3547 13.2087 25.1193 14.1074 26.4025C14.4555 26.8994 14.7596 27.3233 15 27.6564C15.2404 27.3233 15.5445 26.8995 15.8926 26.4025C16.7913 25.1192 17.9887 23.3548 19.1846 21.4269C20.3819 19.4966 21.5692 17.4156 22.4551 15.4972C23.3543 13.5499 23.8936 11.8722 23.8936 10.714C23.8935 8.35556 22.9558 6.09357 21.2881 4.4259C19.6204 2.75834 17.3584 1.82141 15 1.82141ZM15 6.75012C17.1893 6.75012 18.9646 8.52477 18.9648 10.714C18.9648 12.9033 17.1894 14.6788 15 14.6788C12.8108 14.6786 11.0362 12.9032 11.0361 10.714C11.0364 8.52491 12.8109 6.75035 15 6.75012ZM15 8.25012C13.6393 8.25035 12.5364 9.35333 12.5361 10.714C12.5362 12.0748 13.6392 13.1786 15 13.1788C16.3609 13.1788 17.4648 12.0749 17.4648 10.714C17.4646 9.35319 16.3608 8.25012 15 8.25012Z" fill="url(#paint0_linear_684_974)"/>
<defs>
<linearGradient id="paint0_linear_684_974" x1="4.60742" y1="15.0001" x2="25.3936" y2="15.0001" gradientUnits="userSpaceOnUse">
<stop stop-color="#654EA3"/>
<stop offset="1" stop-color="#EAAFC8"/>
</linearGradient>
</defs>
</svg>
