<svg width="50" height="50" viewBox="0 0 50 50" fill="none" xmlns="http://www.w3.org/2000/svg">
<path d="M26.6784 24.6427C26.1486 24.8727 25.5773 24.9914 24.9998 24.9914C24.4223 24.9914 23.8509 24.8727 23.3212 24.6427L2.96407 15.2141C2.6335 15.0474 2.3557 14.7921 2.16161 14.4769C1.96751 14.1616 1.86475 13.7986 1.86475 13.4284C1.86475 13.0581 1.96751 12.6952 2.16161 12.3799C2.3557 12.0646 2.6335 11.8094 2.96407 11.6427L23.3212 2.14266C23.8509 1.91264 24.4223 1.79395 24.9998 1.79395C25.5773 1.79395 26.1486 1.91264 26.6784 2.14266L47.0355 11.5712C47.3661 11.738 47.6439 11.9932 47.838 12.3085C48.032 12.6237 48.1348 12.9867 48.1348 13.3569C48.1348 13.7272 48.032 14.0902 47.838 14.4054C47.6439 14.7207 47.3661 14.9759 47.0355 15.1427L26.6784 24.6427Z" stroke="#725DA7" stroke-width="1.5" stroke-linecap="round" stroke-linejoin="round"/>
<path d="M48.2142 26.25L26.4285 36.2857C25.9632 36.4979 25.4578 36.6078 24.9464 36.6078C24.435 36.6078 23.9295 36.4979 23.4642 36.2857L1.78564 26.25" stroke="#725DA7" stroke-width="1.5" stroke-linecap="round" stroke-linejoin="round"/>
<path d="M48.2142 37.8569L26.4285 47.8926C25.9632 48.1049 25.4578 48.2147 24.9464 48.2147C24.435 48.2147 23.9295 48.1049 23.4642 47.8926L1.78564 37.8569" stroke="#725DA7" stroke-width="1.5" stroke-linecap="round" stroke-linejoin="round"/>
</svg>
