<svg width="24" height="24" viewBox="0 0 24 24" fill="none" xmlns="http://www.w3.org/2000/svg">
<g clip-path="url(#clip0_684_2374)">
<path d="M15.017 22.2858C16.0727 22.9669 17.3307 23.2637 18.5795 23.1263C19.8283 22.9889 20.9917 22.4258 21.8741 21.5315L22.6456 20.7772C22.9838 20.4313 23.1731 19.9667 23.1731 19.4829C23.1731 18.9991 22.9838 18.5346 22.6456 18.1886L19.3713 14.9486C19.0282 14.6115 18.5665 14.4226 18.0856 14.4226C17.6046 14.4226 17.1429 14.6115 16.7998 14.9486V14.9486C16.4539 15.2869 15.9893 15.4762 15.5056 15.4762C15.0218 15.4762 14.5572 15.2869 14.2113 14.9486L9.06841 9.80579C8.89685 9.63672 8.76061 9.43523 8.66762 9.21304C8.57463 8.99084 8.52674 8.75238 8.52674 8.51151C8.52674 8.27064 8.57463 8.03217 8.66762 7.80998C8.76061 7.58778 8.89685 7.38629 9.06841 7.21722V7.21722C9.40553 6.87419 9.59444 6.41247 9.59444 5.93151C9.59444 5.45055 9.40553 4.98883 9.06841 4.64579L5.81127 1.38865C5.46534 1.05045 5.00077 0.861084 4.51698 0.861084C4.0332 0.861084 3.56863 1.05045 3.2227 1.38865L2.46841 2.16008C1.57415 3.04249 1.01098 4.20591 0.873617 5.45471C0.736249 6.70351 1.03305 7.96152 1.71413 9.01722C5.26277 14.247 9.77802 18.7507 15.017 22.2858V22.2858Z" stroke="url(#paint0_linear_684_2374)" stroke-width="1.5" stroke-linecap="round" stroke-linejoin="round"/>
</g>
<defs>
<linearGradient id="paint0_linear_684_2374" x1="0.84082" y1="12.0101" x2="23.1731" y2="12.0101" gradientUnits="userSpaceOnUse">
<stop stop-color="#654EA3"/>
<stop offset="1" stop-color="#EAAFC8"/>
</linearGradient>
<clipPath id="clip0_684_2374">
<rect width="24" height="24" fill="white"/>
</clipPath>
</defs>
</svg>
