<svg width="174" height="50" viewBox="0 0 174 50" fill="none" xmlns="http://www.w3.org/2000/svg">
<circle cx="25" cy="25" r="25" fill="url(#paint0_linear_322_3370)"/>
<path d="M22.2866 22.4627C22.2867 23.9587 23.5038 25.1758 24.9997 25.1758C25.7244 25.1758 26.4059 24.8935 26.9182 24.3811C27.4306 23.8687 27.7128 23.1874 27.7128 22.4627C27.7128 20.9667 26.4958 19.7497 24.9997 19.7497C23.5037 19.7497 22.2866 20.9667 22.2866 22.4627ZM23.8962 22.4627C23.8962 21.8542 24.3913 21.3592 24.9997 21.3592C25.6082 21.3592 26.1033 21.8542 26.1033 22.4627C26.1033 22.7574 25.9884 23.0346 25.7801 23.243C25.5716 23.4514 25.2945 23.5662 24.9997 23.5662C24.3913 23.5662 23.8962 23.0712 23.8962 22.4627Z" fill="white"/>
<path d="M24.4626 10.2055C24.4618 10.2063 24.4584 10.2092 24.4573 10.2102C24.3398 10.3162 22.8047 11.7193 21.2589 14.0172C20.3318 15.3953 19.592 16.813 19.0603 18.231C18.6256 19.3899 18.33 20.5509 18.1753 21.7009C16.7283 22.0437 15.5046 22.4973 14.6144 23.023C13.09 23.9235 12.77 24.899 12.77 25.5588C12.77 26.5379 13.4464 27.9288 16.6684 28.9942C17.1027 29.1378 17.5642 29.2688 18.0486 29.3866V31.9C18.0486 32.3444 18.4089 32.7048 18.8535 32.7048H21.8586C21.9252 34.0137 22.153 35.2853 22.5283 36.4227C22.9791 37.7886 23.6337 38.9409 24.4214 39.755C24.573 39.9116 24.7817 40 24.9997 40C25.2178 40 25.4265 39.9116 25.5781 39.755C26.3658 38.9409 27.0205 37.7886 27.4713 36.4227C27.8466 35.2853 28.0744 34.0137 28.141 32.7048H31.1461C31.5907 32.7048 31.9509 32.3444 31.9509 31.9V29.3866C32.4354 29.2688 32.897 29.1378 33.3313 28.9942C36.5532 27.9288 37.2296 26.5379 37.2296 25.5588C37.2296 24.899 36.9095 23.9235 35.3852 23.023C34.495 22.4973 33.2713 22.0437 31.8243 21.7009C31.6696 20.5509 31.3739 19.3899 30.9393 18.231C30.4076 16.813 29.6678 15.3953 28.7408 14.0172C27.1663 11.6768 25.6028 10.2644 25.537 10.2055C25.3834 10.0677 25.1915 10 25.0002 10C24.8069 10 24.6143 10.0692 24.4626 10.2055ZM25.0002 11.9328C25.5417 12.4929 26.4221 13.4766 27.3135 14.7806H22.6861C23.5746 13.4813 24.4575 12.4948 25.0002 11.9328ZM19.6582 25.855V23.5675C19.6582 20.8033 20.6305 18.2989 21.6903 16.3901H28.3092C29.3714 18.3027 30.3414 20.8056 30.3414 23.5675V25.855C30.3414 26.2995 30.7017 26.6599 31.1461 26.6599C31.5907 26.6599 31.9509 26.2995 31.9509 25.855V23.5675C31.9509 23.5089 31.9502 23.4502 31.9497 23.3914C33.0183 23.6756 33.9114 24.022 34.5665 24.4089C35.236 24.8043 35.62 25.2234 35.62 25.5588C35.62 26.0482 34.756 26.8278 32.8259 27.466C30.7474 28.1534 27.968 28.5318 24.9998 28.5318C22.0316 28.5318 19.2523 28.1534 17.1738 27.466C15.2437 26.8278 14.3796 26.0482 14.3796 25.5588C14.3796 25.2234 14.7635 24.8043 15.4331 24.4089C16.0881 24.022 16.9812 23.6756 18.0499 23.3915C18.0491 23.4502 18.0486 23.5089 18.0486 23.5675V25.855C18.0486 26.2995 18.4089 26.6599 18.8535 26.6599C19.2979 26.6599 19.6582 26.2995 19.6582 25.855ZM30.3414 29.7163V31.0952H19.6582V29.7163C21.2963 29.9942 23.116 30.1415 24.9998 30.1415C26.8836 30.1415 28.7032 29.9942 30.3414 29.7163ZM23.4702 32.7048H26.5294C26.4136 34.7555 25.8598 36.6317 24.9997 37.9134C24.1399 36.6317 23.586 34.7555 23.4702 32.7048Z" fill="white"/>
<path d="M66.296 35V14.392H70.888V35H66.296ZM78.7 35L72.708 26.208H77.748L84.02 35H78.7ZM69.656 28.448V24.836H74.696C75.368 24.836 75.9467 24.7053 76.432 24.444C76.936 24.164 77.3187 23.7813 77.58 23.296C77.86 22.792 78 22.2133 78 21.56C78 20.9067 77.86 20.3373 77.58 19.852C77.3187 19.348 76.936 18.9653 76.432 18.704C75.9467 18.424 75.368 18.284 74.696 18.284H69.656V14.392H74.332C76.0307 14.392 77.5053 14.6533 78.756 15.176C80.0067 15.68 80.968 16.436 81.64 17.444C82.312 18.452 82.648 19.7213 82.648 21.252V21.7C82.648 23.212 82.3027 24.472 81.612 25.48C80.94 26.4693 79.9787 27.216 78.728 27.72C77.496 28.2053 76.0307 28.448 74.332 28.448H69.656ZM95.7651 35V30.464H95.0091V25.536C95.0091 24.752 94.8225 24.164 94.4491 23.772C94.0758 23.38 93.4785 23.184 92.6571 23.184C92.2465 23.184 91.7051 23.1933 91.0331 23.212C90.3611 23.2307 89.6705 23.2587 88.9611 23.296C88.2518 23.3333 87.6078 23.3707 87.0291 23.408V19.628C87.4585 19.5907 87.9625 19.5533 88.5411 19.516C89.1198 19.4787 89.7171 19.4507 90.3331 19.432C90.9491 19.4133 91.5278 19.404 92.0691 19.404C93.6371 19.404 94.9531 19.628 96.0171 20.076C97.0998 20.524 97.9211 21.2053 98.4811 22.12C99.0411 23.016 99.3211 24.1733 99.3211 25.592V35H95.7651ZM90.8651 35.392C89.7638 35.392 88.7931 35.196 87.9531 34.804C87.1318 34.412 86.4878 33.852 86.0211 33.124C85.5545 32.3773 85.3211 31.4907 85.3211 30.464C85.3211 29.344 85.6105 28.4293 86.1891 27.72C86.7678 26.992 87.5798 26.46 88.6251 26.124C89.6705 25.7693 90.8745 25.592 92.2371 25.592H95.5131V28.084H92.2091C91.4251 28.084 90.8185 28.28 90.3891 28.672C89.9785 29.0453 89.7731 29.5587 89.7731 30.212C89.7731 30.828 89.9785 31.332 90.3891 31.724C90.8185 32.0973 91.4251 32.284 92.2091 32.284C92.7131 32.284 93.1611 32.2 93.5531 32.032C93.9638 31.8453 94.2998 31.5373 94.5611 31.108C94.8225 30.6787 94.9718 30.0813 95.0091 29.316L96.0731 30.436C95.9798 31.5 95.7185 32.396 95.2891 33.124C94.8785 33.852 94.2998 34.412 93.5531 34.804C92.8251 35.196 91.9291 35.392 90.8651 35.392ZM103.122 35V19.656H106.678V26.236H106.426C106.426 24.668 106.622 23.3613 107.014 22.316C107.425 21.2707 108.041 20.4867 108.862 19.964C109.683 19.4413 110.682 19.18 111.858 19.18H112.054C113.846 19.18 115.209 19.768 116.142 20.944C117.094 22.1013 117.57 23.8653 117.57 26.236V35H113.09V25.984C113.09 25.1627 112.847 24.4907 112.362 23.968C111.877 23.4453 111.223 23.184 110.402 23.184C109.562 23.184 108.881 23.4547 108.358 23.996C107.854 24.5187 107.602 25.2093 107.602 26.068V35H103.122ZM132.196 35L127.352 27.832H125.196L131.44 19.656H136.144L130.264 27.272L130.32 25.088L137.236 35H132.196ZM121.388 35V14.56H125.868V35H121.388ZM138.571 35V29.988H143.499V35H138.571Z" fill="#14121A"/>
<path d="M147.655 35V19.656H152.135V35H147.655ZM145.611 22.96V19.656H152.135V22.96H145.611ZM149.391 18.144C148.551 18.144 147.925 17.9293 147.515 17.5C147.123 17.052 146.927 16.492 146.927 15.82C146.927 15.1293 147.123 14.5693 147.515 14.14C147.925 13.692 148.551 13.468 149.391 13.468C150.231 13.468 150.847 13.692 151.239 14.14C151.649 14.5693 151.855 15.1293 151.855 15.82C151.855 16.492 151.649 17.052 151.239 17.5C150.847 17.9293 150.231 18.144 149.391 18.144ZM163.754 35.532C162.41 35.532 161.216 35.3267 160.17 34.916C159.125 34.4867 158.238 33.908 157.51 33.18C156.801 32.452 156.26 31.6213 155.886 30.688C155.513 29.736 155.326 28.7373 155.326 27.692V27.048C155.326 25.984 155.513 24.976 155.886 24.024C156.278 23.0533 156.838 22.204 157.566 21.476C158.313 20.748 159.209 20.1787 160.254 19.768C161.3 19.3387 162.466 19.124 163.754 19.124C165.08 19.124 166.256 19.3387 167.282 19.768C168.328 20.1787 169.214 20.748 169.942 21.476C170.67 22.204 171.23 23.0533 171.622 24.024C172.014 24.976 172.21 25.984 172.21 27.048V27.692C172.21 28.7373 172.024 29.736 171.65 30.688C171.277 31.6213 170.726 32.452 169.998 33.18C169.289 33.908 168.412 34.4867 167.366 34.916C166.321 35.3267 165.117 35.532 163.754 35.532ZM163.754 31.752C164.632 31.752 165.36 31.5653 165.938 31.192C166.517 30.8187 166.956 30.296 167.254 29.624C167.572 28.952 167.73 28.2053 167.73 27.384C167.73 26.5067 167.572 25.7413 167.254 25.088C166.937 24.416 166.48 23.884 165.882 23.492C165.304 23.1 164.594 22.904 163.754 22.904C162.933 22.904 162.224 23.1 161.626 23.492C161.029 23.884 160.572 24.416 160.254 25.088C159.956 25.7413 159.806 26.5067 159.806 27.384C159.806 28.2053 159.956 28.952 160.254 29.624C160.553 30.296 161.001 30.8187 161.598 31.192C162.196 31.5653 162.914 31.752 163.754 31.752Z" fill="url(#paint1_linear_322_3370)"/>
<defs>
<linearGradient id="paint0_linear_322_3370" x1="0" y1="25" x2="50" y2="25" gradientUnits="userSpaceOnUse">
<stop stop-color="#654EA3"/>
<stop offset="1" stop-color="#EAAFC8"/>
</linearGradient>
<linearGradient id="paint1_linear_322_3370" x1="64" y1="25" x2="174" y2="25" gradientUnits="userSpaceOnUse">
<stop offset="0.751312" stop-color="#654EA3"/>
<stop offset="1" stop-color="#EAAFC8"/>
</linearGradient>
</defs>
</svg>
