<svg width="180" height="41" viewBox="0 0 180 41" fill="none" xmlns="http://www.w3.org/2000/svg">
<path d="M117.231 23.8843C117.229 24.6142 117.337 25.3402 117.551 26.038C117.561 26.0872 117.576 26.1354 117.595 26.182C118.107 27.8327 119.133 29.2764 120.525 30.3014C121.916 31.3265 123.599 31.879 125.327 31.8782V40.0674C121.34 40.0674 118.485 40.2082 114.127 37.6385C109.185 34.7072 106.401 29.3469 106.401 23.7819C106.401 18.0408 109.518 12.2902 114.802 9.51883C118.642 7.50914 121.551 7.49634 125.337 7.49634V15.6823C123.188 15.6823 121.128 16.5356 119.609 18.0546C118.09 19.5736 117.237 21.6337 117.237 23.7819L117.231 23.8843Z" fill="#69C9D0"/>
<path d="M133.487 23.8843C133.488 24.614 133.38 25.3398 133.167 26.038C133.167 26.086 133.139 26.134 133.123 26.182C132.61 27.8322 131.584 29.2752 130.193 30.3002C128.802 31.3251 127.119 31.878 125.391 31.8782V40.0674C129.375 40.0674 132.233 40.2082 136.576 37.6385C141.533 34.7072 144.323 29.3469 144.323 23.7819C144.323 18.0408 141.206 12.2902 135.923 9.51883C132.083 7.50914 129.174 7.49634 125.391 7.49634V15.6823C127.539 15.6832 129.598 16.5369 131.116 18.0557C132.635 19.5746 133.487 21.6343 133.487 23.7819V23.8843Z" fill="#EE1D52"/>
<path d="M0 0.0688477H29.9885L27.2172 8.31883H19.3577V39.8946H9.71563V8.31883H0V0.0688477ZM79.4755 0.0688477V8.31883H89.1912V39.8946H98.846V8.31883H106.693L109.464 0.0688477H79.4755ZM36.5136 9.47087C37.4377 9.47024 38.3408 9.19561 39.1088 8.68169C39.8768 8.16778 40.4752 7.43767 40.8282 6.58369C41.1813 5.72971 41.2731 4.79022 41.0922 3.88402C40.9113 2.97782 40.4658 2.14563 39.8119 1.49266C39.1581 0.839689 38.3252 0.39527 37.4188 0.215612C36.5124 0.0359546 35.573 0.129126 34.7195 0.483339C33.866 0.837552 33.1367 1.43689 32.6239 2.20558C32.111 2.97428 31.8376 3.8778 31.8382 4.80187C31.8382 5.41555 31.9592 6.02321 32.1942 6.5901C32.4293 7.15699 32.7738 7.67197 33.208 8.10561C33.6422 8.53926 34.1577 8.88304 34.7249 9.1173C35.2921 9.35156 35.9 9.47171 36.5136 9.47087ZM31.8382 39.8946H41.3043V12.7734H31.8382V39.8946ZM75.3602 9.23406H64.2877L54.7448 18.7769V0.100861H45.3396L45.3108 39.8946H54.8056V29.5262L57.7594 26.8349L66.9758 39.8818H77.1266L63.7757 20.8026L75.3602 9.23406ZM166.171 20.809L177.746 9.23406H166.676L157.13 18.7769V0.100861H147.728L147.683 39.8946H157.181V29.5262L160.164 26.8349L169.38 39.8818H179.534L166.171 20.809ZM141.83 23.7755C141.83 32.7679 134.441 40.0611 125.327 40.0611C116.213 40.0611 108.824 32.7679 108.824 23.7755C108.824 14.7831 116.213 7.48998 125.327 7.48998C134.441 7.48998 141.83 14.7863 141.83 23.7819V23.7755ZM133.424 23.7755C133.424 22.1742 132.949 20.6089 132.059 19.2774C131.169 17.946 129.905 16.9082 128.426 16.2955C126.946 15.6827 125.318 15.5223 123.748 15.8347C122.177 16.1471 120.735 16.9182 119.602 18.0505C118.47 19.1828 117.699 20.6255 117.386 22.196C117.074 23.7665 117.234 25.3944 117.847 26.8739C118.46 28.3533 119.498 29.6178 120.829 30.5074C122.161 31.397 123.726 31.8719 125.327 31.8719C127.473 31.8719 129.532 31.0197 131.05 29.5028C132.568 27.9858 133.422 25.9281 133.424 23.7819V23.7755Z" fill="black"/>
</svg>
