<svg width="98" height="41" viewBox="0 0 98 41" fill="none" xmlns="http://www.w3.org/2000/svg">
<path fill-rule="evenodd" clip-rule="evenodd" d="M6.84844 17.0705L4.08953 6.8772H0C0.81892 9.28469 1.67188 11.7015 2.49165 14.1096C3.73811 17.7297 4.51516 20.4593 4.86742 22.3206V32.8333H8.7546V22.3206L13.4298 6.8772H9.49994L6.84844 17.0705ZM33.2719 13.4911V28.2744C32.4955 29.372 31.7601 29.915 31.0593 29.915C30.5889 29.915 30.3138 29.6372 30.2364 29.0946C30.1941 28.98 30.1941 28.5533 30.1941 27.7321V13.4911H26.7004V28.7863C26.7004 30.1516 26.818 31.0758 27.0115 31.6622C27.361 32.6418 28.1397 33.0998 29.2678 33.0998C30.5462 33.0998 31.877 32.3229 33.2719 30.7238V32.8335H36.7772V13.4914L33.2719 13.4911ZM18.6389 13.2586C16.8931 13.2586 15.5284 13.918 14.5598 15.2408C13.8142 16.2181 13.4617 17.7297 13.4617 19.7972V26.5712C13.4617 28.6269 13.8142 30.1518 14.5598 31.1196C15.5286 32.4386 16.8933 33.0998 18.6389 33.0998C20.3952 33.0998 21.759 32.4386 22.7285 31.1196C23.4632 30.1518 23.8161 28.6269 23.8161 26.5712V19.7972C23.8161 17.7299 23.4632 16.2181 22.7285 15.2408C21.759 13.918 20.3952 13.2586 18.6389 13.2586ZM20.3108 27.2305C20.3108 29.0204 19.7689 29.915 18.6389 29.915C17.509 29.915 16.9664 29.0204 16.9664 27.2305V19.094C16.9664 17.3045 17.509 16.412 18.6389 16.412C19.7691 16.412 20.3108 17.3045 20.3108 19.094V27.2305Z" fill="#1B1B1B"/>
<path fill-rule="evenodd" clip-rule="evenodd" d="M87.7801 16.6418C86.6202 16.6418 86.0417 17.5252 86.0417 19.2954V21.0681H89.5093V19.2954C89.5095 17.525 88.9283 16.6418 87.7801 16.6418ZM74.9109 16.6418C74.3408 16.6418 73.7623 16.9131 73.1819 17.4852V29.151C73.7623 29.7307 74.3406 30.0044 74.9109 30.0044C75.9112 30.0044 76.4206 29.151 76.4206 27.4218V19.2542C76.4206 17.525 75.9112 16.6418 74.9109 16.6418ZM96.2588 6.50328C95.557 3.45109 93.0601 1.20007 90.0557 0.864296C83.3777 0.118324 76.6235 0.0688477 69.8903 0.0688477C69.4489 0.0688477 69.0069 0.0692703 68.5657 0.0692703C68.1242 0.0692703 67.6829 0.0688477 67.2412 0.0688477C60.5082 0.0688477 53.7534 0.118113 47.0758 0.864296C44.0712 1.20007 41.5758 3.45109 40.8738 6.50328C39.8749 10.8501 39.8633 15.5939 39.8633 20.0691V20.3902C39.8637 24.7711 39.8872 29.3912 40.8624 33.6346C41.5643 36.6866 44.0596 38.9376 47.0642 39.2732C53.7496 40.0204 60.5109 40.0688 67.2517 40.0688C67.6858 40.0688 68.1204 40.0688 68.554 40.0684C68.9883 40.0688 69.4218 40.0688 69.8561 40.0688C76.5967 40.0688 83.3589 40.0204 90.0439 39.2732C93.0485 38.9376 95.5452 36.6866 96.2472 33.6346C97.2319 29.3491 97.2515 24.6781 97.252 20.2585V20.0691C97.252 15.5939 97.2577 10.8501 96.2588 6.50328ZM56.2328 10.8218H52.0796V32.8933H48.2212V10.8218H44.142V7.20527H56.2328V10.8218ZM66.7119 32.8933H63.243V30.8055C61.8644 32.3869 60.5543 33.1568 59.2793 33.1568C58.162 33.1568 57.3917 32.703 57.0447 31.734C56.8559 31.1542 56.7394 30.2384 56.7394 28.8875V13.7518H60.2062V27.8445C60.2062 28.6573 60.2062 29.0789 60.2384 29.1935C60.3227 29.7307 60.5866 30.0044 61.0501 30.0044C61.7462 30.0044 62.4731 29.4686 63.243 28.3822V13.7518H66.7119V32.8933ZM79.887 27.1478C79.887 28.9192 79.7686 30.1947 79.5389 31.0062C79.0737 32.429 78.1468 33.1568 76.7663 33.1568C75.5333 33.1568 74.3408 32.4717 73.1821 31.0379V32.8931H69.7144V7.20527H73.1819V15.5953C74.3017 14.2172 75.4906 13.5204 76.7661 13.5204C78.1466 13.5204 79.0735 14.247 79.5387 15.6803C79.7686 16.4506 79.8867 17.7157 79.8867 19.5269V27.1478H79.887ZM92.9755 23.9543H86.0417V27.3486C86.0417 29.1201 86.6199 30.0046 87.8114 30.0046C88.6665 30.0046 89.163 29.5405 89.3611 28.6124C89.3926 28.4234 89.4372 27.6548 89.4372 26.2637H92.9753V26.7703C92.9753 27.8859 92.9341 28.6575 92.9015 29.0034C92.7858 29.7737 92.5135 30.4689 92.091 31.0823C91.1324 32.4719 89.7093 33.1572 87.8981 33.1572C86.0839 33.1572 84.7032 32.5042 83.7003 31.1967C82.9632 30.2388 82.5852 28.7298 82.5852 26.6959V19.9927C82.5852 17.9472 82.9214 16.4508 83.6578 15.4829C84.6609 14.1728 86.0412 13.5209 87.8112 13.5209C89.5512 13.5209 90.9321 14.1728 91.9035 15.4829C92.6298 16.4508 92.9753 17.9472 92.9753 19.9927V23.9543H92.9755Z" fill="#A62423"/>
</svg>
