<svg width="132" height="43" viewBox="0 0 132 43" fill="none" xmlns="http://www.w3.org/2000/svg">
<path d="M20.7195 41.9021C20.0992 41.9021 19.3961 41.9022 18.6931 41.8605C16.253 41.8188 15.4259 38.8188 14.5574 35.6938C14.3093 34.6938 14.0198 33.6938 13.689 32.8188C13.5235 33.2771 13.3581 33.9021 13.1513 34.7355C12.4896 37.5271 10.6286 40.9438 10.5459 41.1105C10.2977 41.5688 9.80147 41.8605 9.26384 41.8605H1.44747C0.661702 41.8605 0 41.1939 0 40.4022C0 39.6105 0.661702 38.9439 1.44747 38.9439H8.39532C8.93295 37.8605 9.92553 35.7355 10.3391 34.0272C11.2076 30.5272 12.1174 29.0689 13.5649 28.9439C15.2191 28.8189 15.9635 30.6522 16.2117 31.2355C16.6666 32.3605 17.0388 33.6521 17.3697 34.9021C17.7419 36.2771 18.3622 38.4855 18.8585 38.9439C19.9338 38.9855 21.0504 38.9439 21.8361 38.9439L25.1033 29.1938C25.2687 28.7355 25.6409 28.3604 26.1372 28.2354C26.6335 28.1104 27.1298 28.2772 27.502 28.6105C30.8932 32.0272 31.0586 32.8188 31.1413 33.1938C31.2654 33.6522 32.1339 36.0688 33.0024 38.4022L33.8295 38.6105C35.0702 24.0688 35.98 23.0272 36.2695 22.6522C36.9312 21.8605 39.6194 17.6105 41.315 14.9438C41.6045 14.4855 42.0594 14.2355 42.5971 14.2772C43.0934 14.2772 43.5896 14.5688 43.8378 15.0271L46.0296 19.1105C46.1123 19.2772 46.1537 19.4438 46.1951 19.6105C46.4018 21.1938 48.2629 34.9438 48.387 36.3604C48.511 36.7771 49.3382 37.9021 50.248 38.9855H52.8534C54.0528 37.7355 56.4928 35.3188 57.9403 34.7355C59.0156 34.3188 61.1247 32.3605 61.4556 30.4855C61.8691 28.0272 63.1098 22.8188 63.1925 22.6104C63.358 21.9438 63.937 21.4855 64.5987 21.4855C65.2604 21.4855 65.8394 21.9854 66.0048 22.6104C66.0461 22.7354 68.7757 35.2771 69.0652 36.6938C69.1892 37.2771 69.7269 37.8604 70.0991 38.2354C70.9262 37.5271 72.4977 35.9439 73.7384 34.5689C73.9038 34.4022 74.1106 34.2355 74.3587 34.1938L77.3778 33.1938C78.0395 32.9855 78.7839 33.2771 79.1147 33.9021L80.9344 37.3188L82.7955 38.3605C83.788 34.6938 84.9873 30.1522 85.1114 29.5689C85.1941 28.6522 85.9386 18.2355 86.3935 11.4022C86.4349 10.9438 86.683 10.4855 87.0965 10.2355L89.5779 8.73548C89.9915 8.48548 90.5291 8.44383 90.9427 8.65217C91.3976 8.8605 91.6871 9.27715 91.7698 9.77715L92.6796 16.4855L96.7739 39.0272H97.9733L100.744 31.6522C100.951 31.1522 101.406 30.7771 101.902 30.7354C102.44 30.6521 102.977 30.9021 103.267 31.3604L108.271 38.6105L113.689 35.6521L114.185 23.6105C114.185 23.5688 114.185 23.5271 114.185 23.4855L116.914 1.3605C116.997 0.652171 117.576 0.110514 118.279 0.0688477C118.982 0.0688477 119.603 0.52715 119.768 1.23548L124.152 23.6105V23.6521L125.765 34.1522L130.852 35.2355C131.637 35.4021 132.134 36.1938 131.968 36.9854C131.803 37.7771 130.244 38.2355 129.5 38.0688L124.193 36.8188C123.614 36.6938 123.159 36.1939 123.077 35.6105L121.34 24.1522L118.734 10.7772L117.121 23.7771L116.584 36.6105C116.542 37.1105 116.294 37.5688 115.839 37.8188L108.561 41.8188C107.899 42.1938 107.113 41.9854 106.658 41.3604L102.481 35.3188L100.331 41.0272C100.124 41.6105 99.5862 41.9854 98.9658 41.9854H95.5746C94.8715 41.9854 94.2925 41.4855 94.1685 40.7771L89.8674 17.0272C89.8674 16.9855 89.8674 16.9855 89.8674 16.9438L89.2884 12.6105C88.9162 18.4022 88.1305 29.5272 88.0478 30.0688C87.965 30.6522 86.0213 37.8604 85.1528 40.9438C85.0287 41.3604 84.7393 41.7355 84.3257 41.9021C83.9121 42.0688 83.4572 42.0688 83.085 41.8605L79.2388 39.7772C78.9907 39.6522 78.7839 39.4438 78.6598 39.1938L77.2123 36.4855L75.6822 36.9854C71.2984 41.7354 70.6367 41.6105 69.975 41.5272C68.6929 41.3188 66.7492 39.4439 66.2943 37.4855C66.1288 36.7772 65.3431 33.1522 64.5987 29.7772C64.5159 30.2772 64.3919 30.7355 64.3505 31.1105C63.8542 34.1522 60.9179 36.8604 59.0569 37.6104C58.3125 37.9021 56.162 39.9438 54.5904 41.6105C54.3009 41.9021 53.9287 42.0688 53.5152 42.0688H49.669C49.2554 42.0688 48.8833 41.9021 48.5938 41.6105C47.2704 40.1521 45.6574 38.1521 45.5334 36.8188C45.4507 36.0271 44.21 26.6938 43.3829 20.4438L42.473 18.7771C41.1909 20.8188 39.3299 23.6938 38.6269 24.6105C38.0892 25.9021 37.2207 33.7354 36.6417 40.7354C36.6004 41.1521 36.3936 41.5271 36.0627 41.7771C35.7319 42.0271 35.277 42.1105 34.8634 42.0271L31.6376 41.2771C31.1827 41.1521 30.7692 40.8188 30.6037 40.3605C29.6939 37.9855 28.6186 35.0688 28.3705 34.0688C28.205 33.8188 27.7501 33.2354 27.1298 32.6104L24.3175 41.0688C24.1107 41.6521 23.5731 42.0688 22.9941 42.0688C22.8701 41.8605 21.9189 41.9021 20.7195 41.9021ZM28.2464 33.6521C28.2464 33.6938 28.2464 33.6939 28.2464 33.7355C28.2464 33.7355 28.2464 33.6938 28.2464 33.6521Z" fill="url(#paint0_linear_395_97)"/>
<circle cx="64" cy="25.0688" r="4" fill="#6D54A5"/>
<defs>
<linearGradient id="paint0_linear_395_97" x1="0" y1="21.0688" x2="132" y2="21.0688" gradientUnits="userSpaceOnUse">
<stop stop-color="#654EA3"/>
<stop offset="1" stop-color="#EAAFC8"/>
</linearGradient>
</defs>
</svg>
