<svg width="124" height="30" viewBox="0 0 124 30" fill="none" xmlns="http://www.w3.org/2000/svg">
<path d="M36.5239 19.7305H45.2922V17.0755H39.6404V7.07495H36.5239V19.7305Z" fill="#14121A"/>
<path d="M50.4874 17.9613C49.2373 17.9613 48.5858 16.8639 48.5858 15.2178C48.5858 13.5717 49.2373 12.4566 50.4874 12.4566C51.7375 12.4566 52.4066 13.5717 52.4066 15.2178C52.4066 16.8639 51.7375 17.9613 50.4874 17.9613ZM50.505 20.0145C53.4102 20.0145 55.3117 17.9436 55.3117 15.2178C55.3117 12.492 53.4102 10.4211 50.505 10.4211C47.6174 10.4211 45.6807 12.492 45.6807 15.2178C45.6807 17.9436 47.6174 20.0145 50.505 20.0145Z" fill="#14121A"/>
<path d="M60.3406 22.8634C61.6787 22.8634 62.8584 22.5625 63.6507 21.8545C64.3726 21.1996 64.848 20.2084 64.848 18.8455V10.6681H62.1013V11.6416H62.0661C61.5378 10.8805 60.7279 10.4026 59.5306 10.4026C57.2945 10.4026 55.7451 12.2788 55.7451 14.9338C55.7451 17.7127 57.6291 19.2349 59.6539 19.2349C60.7455 19.2349 61.4322 18.7924 61.9604 18.1906H62.0308V19.0933C62.0308 20.1907 61.5202 20.8279 60.3054 20.8279C59.3546 20.8279 58.8792 20.4208 58.7207 19.9429H55.9388C56.2205 21.8368 57.858 22.8634 60.3406 22.8634ZM60.323 17.0932C59.2489 17.0932 58.5446 16.2082 58.5446 14.8453C58.5446 13.4647 59.2489 12.5797 60.323 12.5797C61.5202 12.5797 62.1541 13.6063 62.1541 14.8276C62.1541 16.102 61.5731 17.0932 60.323 17.0932Z" fill="#14121A"/>
<path d="M70.4952 17.9613C69.2451 17.9613 68.5936 16.8639 68.5936 15.2178C68.5936 13.5717 69.2451 12.4566 70.4952 12.4566C71.7453 12.4566 72.4144 13.5717 72.4144 15.2178C72.4144 16.8639 71.7453 17.9613 70.4952 17.9613ZM70.5128 20.0145C73.418 20.0145 75.3192 17.9436 75.3192 15.2178C75.3192 12.492 73.418 10.4211 70.5128 10.4211C67.6253 10.4211 65.6885 12.492 65.6885 15.2178C65.6885 17.9436 67.6253 20.0145 70.5128 20.0145Z" fill="#14121A"/>
<path d="M76.1577 19.7307H79.0277V10.6683H76.1577V19.7307ZM76.1577 9.4116H79.0277V7.0752H76.1577V9.4116Z" fill="#14121A"/>
<path d="M80.2729 22.7218H83.1429V18.7924H83.1781C83.7415 19.5535 84.5691 20.0137 85.7311 20.0137C88.0905 20.0137 89.6575 18.1375 89.6575 15.1993C89.6575 12.4735 88.1961 10.4026 85.8016 10.4026C84.5691 10.4026 83.6887 10.9513 83.0725 11.7655H83.0196V10.6681H80.2729V22.7218ZM84.9916 17.7835C83.7591 17.7835 83.0549 16.7746 83.0549 15.3055C83.0549 13.8364 83.6887 12.7213 84.9388 12.7213C86.1713 12.7213 86.7523 13.7479 86.7523 15.3055C86.7523 16.8454 86.0833 17.7835 84.9916 17.7835Z" fill="#14121A"/>
<path d="M94.3295 20.0137C96.6888 20.0137 98.4319 18.9871 98.4319 17.0047C98.4319 14.686 96.5656 14.2789 94.9809 14.0134C93.8365 13.801 92.8153 13.7125 92.8153 13.0753C92.8153 12.5089 93.3611 12.2434 94.0654 12.2434C94.8577 12.2434 95.4035 12.4912 95.5091 13.3054H98.1502C98.0093 11.5177 96.636 10.4026 94.083 10.4026C91.9525 10.4026 90.1918 11.3938 90.1918 13.3054C90.1918 15.4294 91.8645 15.8542 93.4315 16.1197C94.6288 16.3321 95.7204 16.4206 95.7204 17.2348C95.7204 17.8189 95.1746 18.1375 94.3119 18.1375C93.3611 18.1375 92.7624 17.695 92.6568 16.7923H89.9453C90.0333 18.7924 91.6884 20.0137 94.3295 20.0137Z" fill="#14121A"/>
<path d="M102.331 19.9964C103.581 19.9964 104.373 19.5008 105.025 18.6158H105.078V19.7309H107.824V10.6685H104.954V15.7307C104.954 16.8104 104.356 17.5538 103.37 17.5538C102.454 17.5538 102.014 17.0051 102.014 16.0139V10.6685H99.1616V16.6157C99.1616 18.6335 100.253 19.9964 102.331 19.9964Z" fill="#14121A"/>
<path d="M109.073 19.7305H111.943V14.6506C111.943 13.5709 112.471 12.8098 113.369 12.8098C114.232 12.8098 114.637 13.3762 114.637 14.3497V19.7305H117.507V14.6506C117.507 13.5709 118.017 12.8098 118.933 12.8098C119.795 12.8098 120.2 13.3762 120.2 14.3497V19.7305H123.07V13.8364C123.07 11.8009 122.049 10.4026 120.007 10.4026C118.845 10.4026 117.876 10.8982 117.172 11.9956H117.137C116.679 11.0221 115.781 10.4026 114.601 10.4026C113.298 10.4026 112.436 11.0221 111.872 11.9602H111.819V10.6681H109.073V19.7305Z" fill="#14121A"/>
<path fill-rule="evenodd" clip-rule="evenodd" d="M7.04937 3.05362C6.01214 3.78271 5.0742 4.64473 4.25999 5.61511C7.58724 5.30458 11.8144 5.81164 16.7221 8.27845C21.9628 10.9126 26.1829 11.0016 29.1199 10.4321C28.8533 9.62102 28.5178 8.84147 28.1204 8.10039C24.7584 8.45686 20.4483 7.98502 15.4252 5.46029C12.2355 3.85701 9.42376 3.19657 7.04937 3.05362ZM26.1565 5.29023C23.5015 2.30812 19.6431 0.431396 15.3486 0.431396C14.0875 0.431396 12.8638 0.593274 11.6973 0.897467C13.2772 1.33083 14.9556 1.96484 16.7221 2.85276C20.3997 4.70125 23.5748 5.29643 26.1565 5.29023ZM29.7478 13.2792C26.1996 13.9836 21.3 13.8389 15.4252 10.886C9.93286 8.12532 5.56145 8.16009 2.61321 8.81873C2.46103 8.85269 2.31244 8.8884 2.16743 8.92557C1.78143 9.76948 1.47332 10.6569 1.25224 11.5784C1.48836 11.515 1.73236 11.4548 1.9841 11.3985C5.56082 10.5995 10.6144 10.6342 16.7221 13.7041C22.2144 16.4648 26.5858 16.43 29.5341 15.7714C29.6351 15.7489 29.7347 15.7255 29.8325 15.7015C29.8433 15.4717 29.8486 15.2404 29.8486 15.0079C29.8486 14.423 29.8144 13.8462 29.7478 13.2792ZM29.3591 18.7776C25.8454 19.3952 21.0884 19.1582 15.4252 16.3117C9.93286 13.551 5.56145 13.5858 2.61321 14.2444C1.95879 14.3905 1.37008 14.5686 0.850757 14.7566C0.849341 14.8402 0.848633 14.924 0.848633 15.0079C0.848633 23.0583 7.3405 29.5845 15.3486 29.5845C22.06 29.5845 27.7065 25.0008 29.3591 18.7776Z" fill="url(#paint0_linear_342_39)"/>
<defs>
<linearGradient id="paint0_linear_342_39" x1="0.848633" y1="15.0079" x2="29.8486" y2="15.0079" gradientUnits="userSpaceOnUse">
<stop stop-color="#654EA3"/>
<stop offset="1" stop-color="#EAAFC8"/>
</linearGradient>
</defs>
</svg>
