<svg width="123" height="30" viewBox="0 0 123 30" fill="none" xmlns="http://www.w3.org/2000/svg">
<path d="M36.4263 19.7302H45.1946V17.0752H39.5427V7.07471H36.4263V19.7302Z" fill="#14121A"/>
<path d="M50.3897 17.9613C49.1396 17.9613 48.4882 16.8639 48.4882 15.2178C48.4882 13.5717 49.1396 12.4566 50.3897 12.4566C51.6398 12.4566 52.3089 13.5717 52.3089 15.2178C52.3089 16.8639 51.6398 17.9613 50.3897 17.9613ZM50.4073 20.0145C53.3125 20.0145 55.2141 17.9436 55.2141 15.2178C55.2141 12.492 53.3125 10.4211 50.4073 10.4211C47.5198 10.4211 45.583 12.492 45.583 15.2178C45.583 17.9436 47.5198 20.0145 50.4073 20.0145Z" fill="#14121A"/>
<path d="M60.2429 22.8632C61.581 22.8632 62.7607 22.5623 63.553 21.8543C64.2749 21.1994 64.7503 20.2081 64.7503 18.8452V10.6678H62.0036V11.6413H61.9684C61.4402 10.8802 60.6303 10.4023 59.433 10.4023C57.1969 10.4023 55.6475 12.2785 55.6475 14.9335C55.6475 17.7124 57.5314 19.2346 59.5562 19.2346C60.6479 19.2346 61.3345 18.7922 61.8628 18.1904H61.9332V19.0931C61.9332 20.1905 61.4226 20.8277 60.2077 20.8277C59.2569 20.8277 58.7815 20.4206 58.6231 19.9427H55.8411C56.1229 21.8366 57.7603 22.8632 60.2429 22.8632ZM60.2253 17.0929C59.1513 17.0929 58.447 16.2079 58.447 14.845C58.447 13.4644 59.1513 12.5794 60.2253 12.5794C61.4226 12.5794 62.0564 13.606 62.0564 14.8273C62.0564 16.1017 61.4754 17.0929 60.2253 17.0929Z" fill="#14121A"/>
<path d="M70.3976 17.9613C69.1474 17.9613 68.496 16.8639 68.496 15.2178C68.496 13.5717 69.1474 12.4566 70.3976 12.4566C71.6477 12.4566 72.3167 13.5717 72.3167 15.2178C72.3167 16.8639 71.6477 17.9613 70.3976 17.9613ZM70.4152 20.0145C73.3203 20.0145 75.2215 17.9436 75.2215 15.2178C75.2215 12.492 73.3203 10.4211 70.4152 10.4211C67.5276 10.4211 65.5908 12.492 65.5908 15.2178C65.5908 17.9436 67.5276 20.0145 70.4152 20.0145Z" fill="#14121A"/>
<path d="M76.0601 19.7302H78.93V10.6678H76.0601V19.7302ZM76.0601 9.41111H78.93V7.07471H76.0601V9.41111Z" fill="#14121A"/>
<path d="M80.1753 22.7216H83.0452V18.7922H83.0805C83.6439 19.5533 84.4714 20.0135 85.6335 20.0135C87.9928 20.0135 89.5599 18.1372 89.5599 15.199C89.5599 12.4732 88.0985 10.4023 85.7039 10.4023C84.4714 10.4023 83.5911 10.951 82.9748 11.7652H82.922V10.6678H80.1753V22.7216ZM84.894 17.7833C83.6615 17.7833 82.9572 16.7743 82.9572 15.3052C82.9572 13.8361 83.5911 12.721 84.8412 12.721C86.0737 12.721 86.6547 13.7476 86.6547 15.3052C86.6547 16.8451 85.9856 17.7833 84.894 17.7833Z" fill="#14121A"/>
<path d="M94.2318 20.0135C96.5912 20.0135 98.3343 18.9868 98.3343 17.0044C98.3343 14.6857 96.4679 14.2786 94.8833 14.0131C93.7388 13.8007 92.7176 13.7122 92.7176 13.075C92.7176 12.5086 93.2634 12.2431 93.9677 12.2431C94.76 12.2431 95.3058 12.4909 95.4115 13.3051H98.0525C97.9117 11.5174 96.5383 10.4023 93.9853 10.4023C91.8549 10.4023 90.0942 11.3935 90.0942 13.3051C90.0942 15.4291 91.7668 15.8539 93.3339 16.1194C94.5311 16.3318 95.6228 16.4203 95.6228 17.2345C95.6228 17.8186 95.077 18.1372 94.2142 18.1372C93.2634 18.1372 92.6648 17.6947 92.5591 16.792H89.8477C89.9357 18.7921 91.5908 20.0135 94.2318 20.0135Z" fill="#14121A"/>
<path d="M102.233 19.9961C103.483 19.9961 104.276 19.5005 104.927 18.6155H104.98V19.7306H107.727V10.6682H104.857V15.7304C104.857 16.8101 104.258 17.5535 103.272 17.5535C102.356 17.5535 101.916 17.0048 101.916 16.0136V10.6682H99.064V16.6154C99.064 18.6332 100.156 19.9961 102.233 19.9961Z" fill="#14121A"/>
<path d="M108.975 19.7303H111.845V14.6503C111.845 13.5706 112.373 12.8095 113.271 12.8095C114.134 12.8095 114.539 13.3759 114.539 14.3494V19.7303H117.409V14.6503C117.409 13.5706 117.919 12.8095 118.835 12.8095C119.698 12.8095 120.103 13.3759 120.103 14.3494V19.7303H122.973V13.8361C122.973 11.8006 121.952 10.4023 119.909 10.4023C118.747 10.4023 117.779 10.8979 117.074 11.9953H117.039C116.581 11.0218 115.683 10.4023 114.504 10.4023C113.201 10.4023 112.338 11.0218 111.775 11.9599H111.722V10.6678H108.975V19.7303Z" fill="#14121A"/>
<path fill-rule="evenodd" clip-rule="evenodd" d="M19.1451 8.94796C17.9528 8.14713 16.5511 7.71967 15.1172 7.71967V0.431396C17.985 0.431396 20.7884 1.2863 23.173 2.88799C25.5575 4.48967 27.4159 6.76623 28.5135 9.42972C29.6109 12.0932 29.8981 15.0241 29.3386 17.8517C28.7791 20.6792 27.3981 23.2766 25.3702 25.3151C23.3424 27.3537 20.7587 28.742 17.946 29.3044C15.1333 29.8668 12.2178 29.5781 9.56826 28.4749C6.91874 27.3716 4.65415 25.5033 3.06088 23.1062C1.4676 20.7091 0.617188 17.8909 0.617188 15.0079H7.86719C7.86719 16.4494 8.2924 17.8585 9.08903 19.0571C9.88566 20.2556 11.018 21.1898 12.3428 21.7414C13.6675 22.2931 15.1252 22.4374 16.5316 22.1561C17.9379 21.875 19.2298 21.1808 20.2437 20.1616C21.2577 19.1422 21.9481 17.8436 22.2278 16.4298C22.5076 15.016 22.3641 13.5506 21.8153 12.2189C21.2666 10.8871 20.3373 9.7488 19.1451 8.94796Z" fill="url(#paint0_linear_342_67)"/>
<path fill-rule="evenodd" clip-rule="evenodd" d="M7.86718 0.4314C7.86718 1.38851 7.67966 2.33625 7.31531 3.2205C6.95097 4.10475 6.41694 4.90821 5.74371 5.58499C5.07049 6.26177 4.27126 6.79862 3.39164 7.16489C2.51203 7.53115 1.56927 7.71967 0.617188 7.71967L0.617188 15.0079C2.52135 15.0079 4.40687 14.6309 6.1661 13.8984C7.92533 13.1658 9.52381 12.0921 10.8702 10.7385C12.2167 9.38504 13.2847 7.77812 14.0134 6.0096C14.7421 4.24109 15.1172 2.34561 15.1172 0.431396L7.86718 0.4314Z" fill="url(#paint1_linear_342_67)"/>
<defs>
<linearGradient id="paint0_linear_342_67" x1="0.617188" y1="15.0079" x2="29.6172" y2="15.0079" gradientUnits="userSpaceOnUse">
<stop stop-color="#654EA3"/>
<stop offset="1" stop-color="#EAAFC8"/>
</linearGradient>
<linearGradient id="paint1_linear_342_67" x1="0.617188" y1="7.71967" x2="15.1172" y2="7.71967" gradientUnits="userSpaceOnUse">
<stop stop-color="#654EA3"/>
<stop offset="1" stop-color="#EAAFC8"/>
</linearGradient>
</defs>
</svg>
