<svg width="50" height="50" viewBox="0 0 50 50" fill="none" xmlns="http://www.w3.org/2000/svg">
<path d="M33.9283 5.35718H39.2854C40.2326 5.35718 41.141 5.73345 41.8108 6.40322C42.4806 7.073 42.8569 7.9814 42.8569 8.92861V44.6429C42.8569 45.5901 42.4806 46.4985 41.8108 47.1683C41.141 47.838 40.2326 48.2143 39.2854 48.2143H10.714C9.76681 48.2143 8.8584 47.838 8.18863 47.1683C7.51885 46.4985 7.14258 45.5901 7.14258 44.6429V8.92861C7.14258 7.9814 7.51885 7.073 8.18863 6.40322C8.8584 5.73345 9.76681 5.35718 10.714 5.35718H16.0712" stroke="#725DA7" stroke-width="1.5" stroke-linecap="round" stroke-linejoin="round"/>
<path d="M30.357 1.78577H19.6427C17.6703 1.78577 16.0713 3.38475 16.0713 5.3572V7.14291C16.0713 9.11536 17.6703 10.7143 19.6427 10.7143H30.357C32.3295 10.7143 33.9284 9.11536 33.9284 7.14291V5.3572C33.9284 3.38475 32.3295 1.78577 30.357 1.78577Z" stroke="#725DA7" stroke-width="1.5" stroke-linecap="round" stroke-linejoin="round"/>
<path d="M16.0713 19.6429H33.9284" stroke="#725DA7" stroke-width="1.5" stroke-linecap="round" stroke-linejoin="round"/>
<path d="M16.0713 28.5715H33.9284" stroke="#725DA7" stroke-width="1.5" stroke-linecap="round" stroke-linejoin="round"/>
<path d="M16.0713 37.5H33.9284" stroke="#725DA7" stroke-width="1.5" stroke-linecap="round" stroke-linejoin="round"/>
</svg>
