<svg width="50" height="51" viewBox="0 0 50 51" fill="none" xmlns="http://www.w3.org/2000/svg">
<g clip-path="url(#clip0_443_563)">
<path d="M25 36.6191V40.2263" stroke="#654EA3" stroke-width="2" stroke-linecap="round" stroke-linejoin="round"/>
<path d="M25 18.7266V22.0837" stroke="#654EA3" stroke-width="2" stroke-linecap="round" stroke-linejoin="round"/>
<path d="M24.9999 49.0127C37.4999 49.0127 46.4284 44.5841 46.4284 34.727C46.4284 24.0127 41.0713 16.8698 30.357 11.5127L34.5713 6.08412C34.7854 5.72795 34.9015 5.3215 34.9079 4.90598C34.9143 4.49046 34.8107 4.08063 34.6077 3.71804C34.4046 3.35546 34.1093 3.05299 33.7517 2.84131C33.3941 2.62964 32.9868 2.51627 32.5713 2.5127H17.4284C17.0129 2.51627 16.6057 2.62964 16.248 2.84131C15.8904 3.05299 15.5951 3.35546 15.3921 3.71804C15.189 4.08063 15.0854 4.49046 15.0918 4.90598C15.0982 5.3215 15.2143 5.72795 15.4284 6.08412L19.6427 11.5484C8.92843 16.9413 3.57129 24.0841 3.57129 34.7984C3.57129 44.5841 12.4999 49.0127 24.9999 49.0127Z" stroke="#654EA3" stroke-width="2" stroke-linecap="round" stroke-linejoin="round"/>
<path d="M21.4286 34.977C21.8643 35.4942 22.4128 35.9048 23.0319 36.1772C23.651 36.4496 24.3242 36.5766 25 36.5484C26.0329 36.6188 27.0528 36.286 27.8454 35.62C28.638 34.9539 29.1415 34.0065 29.25 32.977C29.1415 31.9474 28.638 31 27.8454 30.3339C27.0528 29.6679 26.0329 29.3351 25 29.4055C23.9671 29.4759 22.9472 29.1431 22.1546 28.4771C21.362 27.8111 20.8585 26.8637 20.75 25.8341C20.8498 24.8009 21.3509 23.8481 22.1455 23.1803C22.9402 22.5125 23.9651 22.183 25 22.2627C25.6639 22.2221 26.3285 22.3291 26.946 22.5761C27.5636 22.8231 28.1187 23.204 28.5714 23.6912" stroke="#654EA3" stroke-width="2" stroke-linecap="round" stroke-linejoin="round"/>
</g>
<defs>
<clipPath id="clip0_443_563">
<rect width="50" height="50" fill="white" transform="translate(0 0.833984)"/>
</clipPath>
</defs>
</svg>
