<svg width="51" height="51" viewBox="0 0 51 51" fill="none" xmlns="http://www.w3.org/2000/svg">
<path d="M26.8937 24.8565C26.364 25.0866 25.7926 25.2053 25.2151 25.2053C24.6376 25.2053 24.0663 25.0866 23.5365 24.8565L3.1794 15.428C2.84883 15.2612 2.57103 15.006 2.37694 14.6907C2.18285 14.3754 2.08008 14.0125 2.08008 13.6422C2.08008 13.272 2.18285 12.909 2.37694 12.5938C2.57103 12.2785 2.84883 12.0233 3.1794 11.8565L23.5365 2.35653C24.0663 2.12651 24.6376 2.00781 25.2151 2.00781C25.7926 2.00781 26.364 2.12651 26.8937 2.35653L47.2508 11.7851C47.5814 11.9518 47.8592 12.2071 48.0533 12.5223C48.2474 12.8376 48.3501 13.2006 48.3501 13.5708C48.3501 13.9411 48.2474 14.304 48.0533 14.6193C47.8592 14.9346 47.5814 15.1898 47.2508 15.3565L26.8937 24.8565Z" stroke="white" stroke-width="1.5" stroke-linecap="round" stroke-linejoin="round"/>
<path d="M48.4286 26.4629L26.6429 36.4986C26.1776 36.7108 25.6721 36.8207 25.1607 36.8207C24.6493 36.8207 24.1439 36.7108 23.6786 36.4986L2 26.4629" stroke="white" stroke-width="1.5" stroke-linecap="round" stroke-linejoin="round"/>
<path d="M48.4286 38.0703L26.6429 48.106C26.1776 48.3183 25.6721 48.4281 25.1607 48.4281C24.6493 48.4281 24.1439 48.3183 23.6786 48.106L2 38.0703" stroke="white" stroke-width="1.5" stroke-linecap="round" stroke-linejoin="round"/>
</svg>
