<svg width="43" height="44" viewBox="0 0 43 44" fill="none" xmlns="http://www.w3.org/2000/svg">
<g clip-path="url(#clip0_336_7)">
<path d="M35.2928 6.36108H7.80315C4.42934 6.36108 1.69434 9.09609 1.69434 12.4699V30.7963C1.69434 34.1701 4.42934 36.9052 7.80315 36.9052H35.2928C38.6666 36.9052 41.4016 34.1701 41.4016 30.7963V12.4699C41.4016 9.09609 38.6666 6.36108 35.2928 6.36108Z" stroke="white" stroke-width="2" stroke-linecap="round" stroke-linejoin="round"/>
<path d="M16.3863 28.7193V15.8908C16.3799 15.6742 16.4327 15.46 16.539 15.2712C16.6454 15.0824 16.8012 14.9262 16.9897 14.8194C17.1782 14.7126 17.3923 14.6592 17.6089 14.665C17.8255 14.6708 18.0364 14.7356 18.2189 14.8523L29.2148 21.2666C29.3985 21.3744 29.5508 21.5283 29.6567 21.7132C29.7626 21.898 29.8182 22.1073 29.8182 22.3203C29.8182 22.5334 29.7626 22.7427 29.6567 22.9275C29.5508 23.1124 29.3985 23.2663 29.2148 23.3741L18.2189 29.7884C18.0324 29.8961 17.8207 29.9526 17.6053 29.9521C17.3899 29.9516 17.1784 29.8942 16.9924 29.7857C16.8063 29.6771 16.6522 29.5213 16.5458 29.3341C16.4394 29.1468 16.3843 28.9347 16.3863 28.7193V28.7193Z" stroke="white" stroke-width="2" stroke-linecap="round" stroke-linejoin="round"/>
</g>
<defs>
<clipPath id="clip0_336_7">
<rect width="42.7617" height="42.7617" fill="white" transform="translate(0.166992 0.252197)"/>
</clipPath>
</defs>
</svg>
