<svg width="40" height="40" viewBox="0 0 40 40" fill="none" xmlns="http://www.w3.org/2000/svg">
<path d="M3 15.3638V29.2729C3.00074 31.322 3.8151 33.2871 5.26408 34.7361C6.71306 36.185 8.6781 36.9994 10.7273 37.0001H29.2727C31.3219 36.9994 33.2869 36.185 34.7359 34.7361C36.1849 33.2871 36.9993 31.322 37 29.2729V15.3638H3ZM25.3936 25.981L16.1209 31.2047C15.8914 31.3392 15.6296 31.4087 15.3636 31.4056C14.9556 31.3998 14.5658 31.2351 14.2772 30.9465C13.9887 30.6579 13.824 30.2682 13.8182 29.8601V19.4129C13.8204 19.144 13.8925 18.8803 14.0273 18.6477C14.1621 18.4151 14.3551 18.2215 14.5873 18.0859C14.8195 17.9504 15.0829 17.8775 15.3518 17.8744C15.6206 17.8713 15.8857 17.9381 16.1209 18.0683L25.3936 23.292C25.6327 23.4258 25.8317 23.6209 25.9702 23.8572C26.1087 24.0936 26.1818 24.3626 26.1818 24.6365C26.1818 24.9104 26.1087 25.1794 25.9702 25.4157C25.8317 25.6521 25.6327 25.8472 25.3936 25.981Z" fill="black"/>
<path d="M12.4427 12.2729H3.00001V10.7274C2.99846 9.44113 3.31861 8.1749 3.93133 7.04393C4.54405 5.91297 5.42987 4.95319 6.50819 4.25195L8.34728 6.75559L12.4427 12.2729Z" fill="black"/>
<path d="M26.3671 12.2729H16.2907L11.7162 6.09108L9.49072 3.10836C9.89851 3.03336 10.3125 2.99714 10.7271 3.00018H19.5671L21.8235 6.09108L26.3671 12.2729Z" fill="black"/>
<path d="M37 10.7274V12.2729H30.2L25.641 6.09103L23.3691 3.00012H29.2728C31.322 3.00086 33.287 3.81522 34.736 5.2642C36.185 6.71319 36.9993 8.67822 37 10.7274Z" fill="black"/>
</svg>
