<svg width="50" height="50" viewBox="0 0 50 50" fill="none" xmlns="http://www.w3.org/2000/svg">
<circle cx="25" cy="25" r="25" fill="url(#paint0_linear_322_3371)"/>
<path d="M22.2866 22.4627C22.2867 23.9587 23.5038 25.1758 24.9997 25.1758C25.7244 25.1758 26.4059 24.8935 26.9182 24.3811C27.4306 23.8687 27.7128 23.1874 27.7128 22.4627C27.7128 20.9667 26.4958 19.7497 24.9997 19.7497C23.5037 19.7497 22.2866 20.9667 22.2866 22.4627ZM23.8962 22.4627C23.8962 21.8542 24.3913 21.3592 24.9997 21.3592C25.6082 21.3592 26.1033 21.8542 26.1033 22.4627C26.1033 22.7574 25.9884 23.0346 25.7801 23.243C25.5716 23.4514 25.2945 23.5662 24.9997 23.5662C24.3913 23.5662 23.8962 23.0712 23.8962 22.4627Z" fill="white"/>
<path d="M24.4626 10.2055C24.4618 10.2063 24.4584 10.2092 24.4573 10.2102C24.3398 10.3162 22.8047 11.7193 21.2589 14.0172C20.3318 15.3953 19.592 16.813 19.0603 18.231C18.6256 19.3899 18.33 20.5509 18.1753 21.7009C16.7283 22.0437 15.5046 22.4973 14.6144 23.023C13.09 23.9235 12.77 24.899 12.77 25.5588C12.77 26.5379 13.4464 27.9288 16.6684 28.9942C17.1027 29.1378 17.5642 29.2688 18.0486 29.3866V31.9C18.0486 32.3444 18.4089 32.7048 18.8535 32.7048H21.8586C21.9252 34.0137 22.153 35.2853 22.5283 36.4227C22.9791 37.7886 23.6337 38.9409 24.4214 39.755C24.573 39.9116 24.7817 40 24.9997 40C25.2178 40 25.4265 39.9116 25.5781 39.755C26.3658 38.9409 27.0205 37.7886 27.4713 36.4227C27.8466 35.2853 28.0744 34.0137 28.141 32.7048H31.1461C31.5907 32.7048 31.9509 32.3444 31.9509 31.9V29.3866C32.4354 29.2688 32.897 29.1378 33.3313 28.9942C36.5532 27.9288 37.2296 26.5379 37.2296 25.5588C37.2296 24.899 36.9095 23.9235 35.3852 23.023C34.495 22.4973 33.2713 22.0437 31.8243 21.7009C31.6696 20.5509 31.3739 19.3899 30.9393 18.231C30.4076 16.813 29.6678 15.3953 28.7408 14.0172C27.1663 11.6768 25.6028 10.2644 25.537 10.2055C25.3834 10.0677 25.1915 10 25.0002 10C24.8069 10 24.6143 10.0692 24.4626 10.2055ZM25.0002 11.9328C25.5417 12.4929 26.4221 13.4766 27.3135 14.7806H22.6861C23.5746 13.4813 24.4575 12.4948 25.0002 11.9328ZM19.6582 25.855V23.5675C19.6582 20.8033 20.6305 18.2989 21.6903 16.3901H28.3092C29.3714 18.3027 30.3414 20.8056 30.3414 23.5675V25.855C30.3414 26.2995 30.7017 26.6599 31.1461 26.6599C31.5907 26.6599 31.9509 26.2995 31.9509 25.855V23.5675C31.9509 23.5089 31.9502 23.4502 31.9497 23.3914C33.0183 23.6756 33.9114 24.022 34.5665 24.4089C35.236 24.8043 35.62 25.2234 35.62 25.5588C35.62 26.0482 34.756 26.8278 32.8259 27.466C30.7474 28.1534 27.968 28.5318 24.9998 28.5318C22.0316 28.5318 19.2523 28.1534 17.1738 27.466C15.2437 26.8278 14.3796 26.0482 14.3796 25.5588C14.3796 25.2234 14.7635 24.8043 15.4331 24.4089C16.0881 24.022 16.9812 23.6756 18.0499 23.3915C18.0491 23.4502 18.0486 23.5089 18.0486 23.5675V25.855C18.0486 26.2995 18.4089 26.6599 18.8535 26.6599C19.2979 26.6599 19.6582 26.2995 19.6582 25.855ZM30.3414 29.7163V31.0952H19.6582V29.7163C21.2963 29.9942 23.116 30.1415 24.9998 30.1415C26.8836 30.1415 28.7032 29.9942 30.3414 29.7163ZM23.4702 32.7048H26.5294C26.4136 34.7555 25.8598 36.6317 24.9997 37.9134C24.1399 36.6317 23.586 34.7555 23.4702 32.7048Z" fill="white"/>
<defs>
<linearGradient id="paint0_linear_322_3371" x1="0" y1="25" x2="50" y2="25" gradientUnits="userSpaceOnUse">
<stop stop-color="#654EA3"/>
<stop offset="1" stop-color="#EAAFC8"/>
</linearGradient>
</defs>
</svg>
