<svg width="56" height="40" viewBox="0 0 56 40" fill="none" xmlns="http://www.w3.org/2000/svg">
<path fill-rule="evenodd" clip-rule="evenodd" d="M44.1781 10.9716C46.2042 8.13298 50.0339 5.07718 55.2476 2.53325C56.6025 1.87215 55.9913 -0.17691 54.4957 0.0122833C43.5411 1.39795 36.4408 6.19563 32.5635 13.3303C31.1214 15.9839 30.2154 18.8084 29.7329 21.6917C29.4148 23.5928 29.3307 25.0194 29.3307 26.6672C29.3307 34.0307 35.3 40 42.6635 40C50.027 40 55.9962 34.0307 55.9962 26.6672C55.9962 19.3038 49.9317 13.3303 42.9626 13.3303C43.3303 12.3209 43.4186 12.0356 44.1781 10.9716ZM14.846 10.9716C16.8722 8.13298 20.7018 5.07718 25.9156 2.53325C27.2705 1.87215 26.6593 -0.17691 25.1636 0.0122833C14.209 1.39795 7.10877 6.19563 3.23144 13.3303C1.78936 15.9839 0.883335 18.8084 0.400837 21.6917C0.0827103 23.5928 -0.00130844 25.0194 -0.00130844 26.6672C-0.00130844 34.0307 5.96797 40 13.3314 40C20.6949 40 26.6642 34.0307 26.6642 26.6672C26.6642 19.3038 20.5997 13.3303 13.6306 13.3303C13.9982 12.3209 14.0866 12.0356 14.846 10.9716Z" fill="url(#paint0_linear_733_60)"/>
<defs>
<linearGradient id="paint0_linear_733_60" x1="56" y1="20" x2="-0.00130463" y2="20" gradientUnits="userSpaceOnUse">
<stop stop-color="#654EA3"/>
<stop offset="1" stop-color="#EAAFC8"/>
</linearGradient>
</defs>
</svg>
