<svg width="54" height="55" viewBox="0 0 54 55" fill="none" xmlns="http://www.w3.org/2000/svg">
<g clip-path="url(#clip0_395_294)">
<path d="M54.0023 27.3188C54.0023 42.23 41.9134 54.3188 27.001 54.3188H26.9504C12.0619 54.2909 0.000976562 42.21 0.000976562 27.3188C0.000976562 12.4277 12.0619 0.34546 26.9504 0.318848H27.001C41.9134 0.318848 54.0023 12.4037 54.0023 27.3188Z" fill="black"/>
<path d="M26.9504 0.318848V54.3188C12.0619 54.2909 0.000976562 42.21 0.000976562 27.3188C0.000976562 12.4277 12.0619 0.34546 26.9504 0.318848Z" fill="#0C0C0C"/>
<path d="M41.6928 19.8446L41.6595 25.3761C40.5816 25.3629 39.5092 25.2191 38.466 24.9477C36.8565 24.5272 35.3385 23.8131 33.9884 22.8412C33.9884 23.4068 33.9964 24.2504 33.9964 25.2763C33.9964 26.6416 33.9964 27.4173 33.9884 28.241C33.9644 33.3293 34.0908 34.314 33.6437 36.3259C33.5507 36.8111 33.4236 37.2891 33.2632 37.7564C32.4036 40.1515 30.53 42.0703 28.6206 43.0909C28.0877 43.3742 27.5284 43.6046 26.9506 43.7789C23.3419 44.8726 19.0054 43.9119 16.7672 41.2506L16.7526 41.2347L16.7353 41.2121C14.8338 38.918 14.4187 35.3413 14.3787 34.4258C14.3787 34.3087 14.3708 34.1943 14.3708 34.1943C14.3415 32.9437 14.5214 31.697 14.903 30.5057C15.2889 29.2736 16.5597 26.7014 19.4139 25.1393C21.194 24.1803 23.2257 23.7916 25.2341 24.0255L25.1689 29.6235C25.0558 29.5942 22.3213 28.9462 20.5263 30.8091C18.9003 32.4964 19.0054 35.2149 20.159 36.7544C20.2202 36.8369 20.2854 36.9167 20.3533 36.9913C20.9987 37.7111 21.817 37.9813 22.3692 38.1702C23.1015 38.4115 23.87 38.524 24.6406 38.5029C25.4662 38.49 26.2693 38.232 26.948 37.7617C28.8242 36.487 29.077 34.2169 29.0863 34.0878C29.0632 26.7799 29.0415 19.4721 29.0211 12.1642V12.1575L32.538 12.095H32.5952L33.1048 12.0857C33.4806 13.4381 34.1176 14.7038 34.9797 15.8115C35.2513 16.1579 35.5447 16.4868 35.8579 16.7962C37.0414 17.9481 38.4631 18.8265 40.0228 19.3696H40.0335C40.5745 19.5673 41.129 19.7261 41.6928 19.8446Z" fill="#FD2854"/>
<path d="M40.1023 22.3476H40.0916C38.1977 22.651 36.2589 22.5038 34.4324 21.9178C33.1571 21.5031 31.9599 20.8785 30.8903 20.0696C31.5316 23.9464 31.5316 27.9023 30.8903 31.7792C30.1305 36.3353 29.6541 39.1908 27.1113 41.0178C27.058 41.0564 27.0035 41.095 26.9489 41.1309C23.4374 43.5088 18.5313 42.3285 16.7336 41.2094L16.707 41.1934L16.6564 41.1615C16.0639 40.769 15.5081 40.3236 14.9958 39.8309C14.0775 38.9401 13.3447 37.8762 12.8397 36.7007C12.3348 35.5252 12.0676 34.2614 12.0537 32.9821C12.0196 31.657 12.2395 30.3376 12.7018 29.0953C13.0012 28.2969 14.1136 25.4573 17.2126 23.7288C19.1971 22.6407 21.4901 22.2526 23.7221 22.627C23.7132 23.0706 23.7048 23.5141 23.6968 23.9577V23.967L23.6449 26.7746C22.6737 26.5458 21.6696 26.4899 20.6789 26.6096C19.8806 26.7081 19.0981 26.7999 18.2665 27.3229C17.2014 28.0085 16.4475 29.0843 16.1667 30.3195C15.9891 30.9177 15.9526 31.549 16.0603 32.1637C16.0922 32.3394 16.3264 33.5596 17.3111 34.4351C17.6424 34.7292 17.7835 34.7412 18.2665 35.1923C18.6923 35.5915 18.7988 35.7831 19.1886 36.1144C19.1886 36.1144 19.2844 36.1956 19.4415 36.31C19.4515 36.3187 19.4622 36.3267 19.4734 36.334C19.6881 36.491 19.9135 36.6328 20.148 36.7584C21.1234 37.2694 22.8692 37.3239 24.1493 36.7025C25.9203 35.8416 26.8864 33.8616 26.8824 32.6853C26.8611 25.3748 26.8394 18.0647 26.8172 10.7551H26.9396L32.3713 10.7231C32.3674 11.1468 32.4261 11.5688 32.5456 11.9753C32.5589 12.0192 32.5722 12.0604 32.5868 12.1083C32.6015 12.1562 32.6108 12.1789 32.6228 12.2121C32.707 12.4333 32.8043 12.6492 32.9142 12.8588L32.99 13.0118V13.0238C32.9888 13.0273 32.9888 13.031 32.99 13.0345L33.002 13.0597L33.014 13.0837C33.0212 13.0992 33.0292 13.1143 33.0379 13.1289C33.0459 13.1462 33.0552 13.1635 33.0645 13.1808C33.1151 13.278 33.1843 13.4057 33.2628 13.5494C33.312 13.6386 33.3639 13.7277 33.4172 13.8155L33.4744 13.91C33.5023 13.9579 33.5316 14.0058 33.5609 14.0524L33.6673 14.2214C34.0811 14.8747 34.8077 15.9752 35.8376 16.8068C37.2853 17.9751 38.9486 18.3051 39.9918 18.4036C39.9985 18.7309 40.0065 19.0583 40.0131 19.3856C40.0522 20.3738 40.0819 21.3612 40.1023 22.3476Z" fill="#24F6FA"/>
<path d="M40.1195 23.9111C37.3777 24.0117 34.6857 23.1592 32.5016 21.4987V33.2083C32.475 33.6567 32.0824 38.6027 27.6142 41.3252C27.3933 41.4583 27.171 41.582 26.9488 41.6964C22.7453 43.8414 18.6377 42.1608 18.2318 41.9865C17.8283 41.8546 17.4415 41.676 17.0795 41.4543C16.9664 41.3837 16.8559 41.3106 16.7508 41.2347L16.6563 41.1642C13.9152 39.0831 13.8021 34.8437 13.7848 34.2183C13.7555 32.9677 13.9354 31.721 14.3171 30.5297C14.7695 29.086 16.1201 26.6522 18.8279 25.1633C20.3221 24.3501 22.0012 23.9376 23.7021 23.9657V23.975C23.6799 25.381 23.6577 26.7875 23.6355 28.1944C23.3495 28.1173 21.5957 27.6755 19.8818 28.7546C18.8167 29.4402 18.0628 30.5161 17.7821 31.7512C17.6141 32.3507 17.5777 32.9794 17.6756 33.5942C17.8276 34.3533 18.1857 35.0559 18.7108 35.6247C18.9316 35.879 19.1782 36.1095 19.4467 36.3127C19.4568 36.3214 19.4674 36.3294 19.4786 36.3366C19.6895 36.4993 19.9154 36.6414 20.1533 36.7611L20.1612 36.7678C20.6367 37.4858 21.3226 38.0392 22.1249 38.3522C22.9272 38.6652 23.8067 38.7225 24.6428 38.5162C25.0324 38.4349 25.4108 38.3071 25.7699 38.1357C26.2048 37.9288 26.6034 37.6529 26.9502 37.3186C28.2968 36.0239 28.4937 34.2329 28.503 34.1251L28.4445 12.1842L29.03 12.1722L32.5468 12.103H32.5974C32.6107 12.1376 32.6253 12.1722 32.64 12.2068C32.7211 12.4024 32.8183 12.6193 32.9314 12.8535L33.0072 13.0065V13.0185C33.006 13.022 33.006 13.0257 33.0072 13.0292L33.0192 13.0544L33.0312 13.0784C33.0384 13.0939 33.0464 13.109 33.0551 13.1236C33.0631 13.1409 33.0724 13.1582 33.0817 13.1755C33.143 13.2953 33.2148 13.419 33.28 13.5441C33.3292 13.6333 33.3811 13.7224 33.4344 13.8102L33.4916 13.9047L33.5781 14.0471L33.6845 14.2161C34.2932 15.168 35.0227 16.0371 35.8548 16.8015C37.0691 17.9133 38.4821 18.7864 40.0197 19.375H40.0303C40.0476 20.361 40.0649 21.3496 40.0809 22.3356L40.1195 23.9111Z" fill="white"/>
</g>
<defs>
<clipPath id="clip0_395_294">
<rect width="54" height="54" fill="white" transform="translate(0.000976562 0.318848)"/>
</clipPath>
</defs>
</svg>
