<svg width="54" height="55" viewBox="0 0 54 55" fill="none" xmlns="http://www.w3.org/2000/svg">
<g clip-path="url(#clip0_395_256)">
<path d="M27 54.0688C41.9117 54.0688 54 41.9805 54 27.0688C54 12.1572 41.9117 0.0688477 27 0.0688477C12.0883 0.0688477 0 12.1572 0 27.0688C0 41.9805 12.0883 54.0688 27 54.0688Z" fill="#FF0000"/>
<path d="M35.8355 16.9119H18.1647C17.4585 16.9119 16.7593 17.051 16.1069 17.3214C15.4545 17.5917 14.8618 17.988 14.3626 18.4875C13.8635 18.987 13.4676 19.5799 13.1977 20.2325C12.9278 20.885 12.7891 21.5844 12.7896 22.2905V31.8471C12.7891 32.5533 12.9278 33.2526 13.1977 33.9052C13.4676 34.5577 13.8635 35.1507 14.3626 35.6502C14.8618 36.1497 15.4545 36.546 16.1069 36.8163C16.7593 37.0867 17.4585 37.2258 18.1647 37.2258H35.8355C36.5416 37.2258 37.2409 37.0867 37.8933 36.8163C38.5456 36.546 39.1383 36.1497 39.6375 35.6502C40.1367 35.1507 40.5325 34.5577 40.8025 33.9052C41.0724 33.2526 41.2111 32.5533 41.2106 31.8471V22.2905C41.2111 21.5844 41.0724 20.885 40.8025 20.2325C40.5325 19.5799 40.1367 18.987 39.6375 18.4875C39.1383 17.988 38.5456 17.5917 37.8933 17.3214C37.2409 17.051 36.5416 16.9119 35.8355 16.9119ZM23.2556 31.4244V22.7133L30.7446 27.0688L23.2556 31.4244Z" fill="white"/>
</g>
<defs>
<clipPath id="clip0_395_256">
<rect width="54" height="54" fill="white" transform="translate(0 0.0688477)"/>
</clipPath>
</defs>
</svg>
