<svg width="40" height="40" viewBox="0 0 40 40" fill="none" xmlns="http://www.w3.org/2000/svg">
<path d="M27.9167 1.66663C26.7 1.66663 25.5493 1.976 24.541 2.526L8.79232 10.817C6.54232 12.0003 5 14.3666 5 17.0833C5 20.575 7.53437 23.4759 10.8594 24.0592L8.89323 24.9251C6.5849 26.1001 5 28.4916 5 31.25C5 35.1583 8.175 38.3333 12.0833 38.3333C13.3083 38.3333 14.459 38.0239 15.459 37.4739L30.9831 29.3001C33.3581 28.1584 35 25.725 35 22.9166C35 19.425 32.4656 16.524 29.1406 15.9407L31.1068 15.0748C33.4151 13.8998 35 11.5083 35 8.74996C35 4.84163 31.825 1.66663 27.9167 1.66663ZM17.5033 15.638C17.6466 15.638 17.793 15.6735 17.9297 15.7552L23.8086 19.2838C24.3486 19.6071 24.3486 20.3895 23.8086 20.7129L17.9297 24.2415C17.793 24.3248 17.6466 24.3619 17.5033 24.3619C17.0683 24.3619 16.6667 24.0169 16.6667 23.5286V16.4713C16.6667 15.9846 17.0683 15.638 17.5033 15.638Z" fill="black"/>
</svg>
